<svg width="542" height="547" viewBox="0 0 542 547" fill="none" xmlns="http://www.w3.org/2000/svg">
<path fill-rule="evenodd" clip-rule="evenodd" d="M511.761 361.27C496.842 333.219 494.247 300.143 504.654 269.663C511.396 249.915 512.453 219.41 506.886 199.168C489.008 134.134 406.319 95.3865 326.588 124.337C253.486 150.882 235.589 260.393 179.459 248.488C47.4403 220.489 -0.10999 314.577 6.85393 391.17C11.3521 440.644 52.851 501.837 141.497 495.41C167.595 493.518 193.228 499.935 215.314 512.705C253.034 534.518 312.991 539.63 375.271 522.514C468.954 496.766 532.416 430.476 517.014 374.455C515.745 369.843 513.982 365.444 511.761 361.27Z" fill="#BFF0EA"/>
<g style="mix-blend-mode:multiply" opacity="0.22">
<path fill-rule="evenodd" clip-rule="evenodd" d="M261.723 546.161C374.907 546.161 466.662 454.867 466.662 342.253C466.662 229.639 374.907 138.347 261.723 138.347C148.536 138.347 56.7831 229.639 56.7831 342.253C56.7831 454.867 148.536 546.161 261.723 546.161Z" fill="#BFF0EA"/>
</g>
<path opacity="0.01" fill-rule="evenodd" clip-rule="evenodd" d="M525.627 250.427C532.707 229.69 533.817 197.657 527.971 176.4C509.198 108.109 432.783 -25.9847 349.058 4.41585C272.294 32.2906 189.07 127.474 130.127 114.972C-8.50499 85.57 -4.42417 297.591 2.88862 378.021C7.61213 429.974 51.19 494.232 144.277 487.483C171.682 485.497 198.6 492.235 221.792 505.645C261.402 528.551 324.362 533.919 389.763 515.945C488.139 488.907 554.78 419.297 538.606 360.469C537.274 355.626 535.422 351.007 533.09 346.623C517.423 317.167 514.699 282.434 525.627 250.427Z" fill="#BFF0EA"/>
<mask id="mask0_267_501" style="mask-type:alpha" maskUnits="userSpaceOnUse" x="0" y="30" width="542" height="503">
<path fill-rule="evenodd" clip-rule="evenodd" d="M525.627 269.585C532.707 249.821 533.817 219.291 527.972 199.032C509.199 133.945 432.789 6.14444 349.067 35.1184C272.307 61.6851 189.087 152.402 130.148 140.487C-8.47721 112.464 -4.39661 314.536 2.91582 391.192C7.63909 440.707 51.2148 501.949 144.297 495.517C171.701 493.624 198.617 500.046 221.808 512.827C261.416 534.658 324.373 539.774 389.77 522.644C488.142 496.874 554.779 430.531 538.606 374.463C537.274 369.848 535.422 365.445 533.09 361.267C517.424 333.194 514.7 300.09 525.627 269.585Z" fill="white"/>
</mask>
<g mask="url(#mask0_267_501)">
<path fill-rule="evenodd" clip-rule="evenodd" d="M490.224 459.707C494.642 459.707 501.626 458.691 507.737 453.38C516.538 445.716 520.332 432.1 519.067 412.923C518.194 399.967 513.099 386.867 507.701 372.966C498.633 349.618 488.336 323.152 493.716 288.149L483.722 286.599C477.932 324.293 489.209 353.308 498.277 376.637C503.604 390.342 508.2 402.194 508.966 413.583C509.999 429.142 507.309 440.245 501.199 445.663C495.391 450.796 488.122 449.459 487.819 449.406L485.788 459.333C485.984 459.368 487.677 459.707 490.224 459.707Z" fill="#339D89"/>
<path fill-rule="evenodd" clip-rule="evenodd" d="M413.975 556.856H396.694V495.28H413.975V556.856Z" fill="#77D6C5"/>
<path fill-rule="evenodd" clip-rule="evenodd" d="M411.89 494.852H399.241V472.717H411.89V494.852Z" fill="#339D89"/>
<path fill-rule="evenodd" clip-rule="evenodd" d="M389.746 461.008C389.746 467.834 395.269 473.359 402.074 473.359H409.04C415.845 473.359 421.368 467.834 421.368 461.008C421.368 454.2 415.845 448.675 409.04 448.675H402.074C395.269 448.675 389.746 454.2 389.746 461.008Z" fill="#339D89"/>
<path fill-rule="evenodd" clip-rule="evenodd" d="M311.571 449.744C311.268 448.283 311.09 439.176 311.09 437.607C311.09 427.645 317.521 419.589 325.467 419.589H485.645C493.591 419.589 500.022 427.645 500.022 437.607C500.022 439.176 499.844 448.283 499.541 449.744H311.571Z" fill="#75D4C4"/>
<path fill-rule="evenodd" clip-rule="evenodd" d="M501.501 454.628C501.501 457.675 499.719 460.135 497.51 460.135H313.601C311.41 460.135 309.611 457.675 309.611 454.628C309.611 451.562 311.41 449.103 313.601 449.103H497.51C499.719 449.103 501.501 451.562 501.501 454.628Z" fill="#339D89"/>
<path fill-rule="evenodd" clip-rule="evenodd" d="M492.523 357.211C488.586 357.514 463.466 357.941 459.137 357.995C431.665 358.334 407.989 353.165 406.67 346.41C401.254 318.269 401.005 289.397 405.958 261.255C407.134 254.483 431.167 249.332 459.226 249.671C463.644 249.724 489.263 250.17 493.289 250.473C484.666 285.547 484.435 322.119 492.523 357.211Z" fill="#75D4C4"/>
<path fill-rule="evenodd" clip-rule="evenodd" d="M496.299 250.455C499.381 250.491 501.537 251.952 501.109 253.734C493.448 286.723 493.163 320.96 500.236 353.967C500.628 355.731 498.508 357.193 495.497 357.229C492.486 357.264 489.707 355.856 489.315 354.092C482.136 320.996 482.367 286.688 489.974 253.61C490.384 251.827 493.217 250.419 496.299 250.455Z" fill="#339D89"/>
<path fill-rule="evenodd" clip-rule="evenodd" d="M497.529 357.157C496.727 357.425 491.275 357.638 490.331 357.638C484.345 357.71 478.181 352.434 476.987 345.769C471.999 318.055 472.124 289.628 477.362 261.915C478.609 255.249 484.933 249.974 491.044 250.045C492.006 250.063 497.546 250.277 498.384 250.544C489.761 285.583 489.476 322.101 497.529 357.157Z" fill="#64C2B2"/>
<path fill-rule="evenodd" clip-rule="evenodd" d="M330.865 276.975C330.865 276.975 330.669 283.979 296.713 284.015C262.775 284.05 212.927 275.692 212.927 275.692L291.244 268.295C291.244 268.295 321.316 266.887 330.865 276.975Z" fill="#ED8A72"/>
<path fill-rule="evenodd" clip-rule="evenodd" d="M239.632 278.169C223.509 278.668 216.829 286.991 210.504 289.7C204.18 292.409 197.873 296.454 197.926 296.383C201.294 289.343 206.496 288.987 209.043 286.67C211.573 284.353 210.932 285.494 205.177 285.262C201.899 285.119 196.341 291.054 192.297 294.387C188.805 297.256 186.578 297.542 186.578 297.542C186.578 297.542 190.569 291.589 195.753 286.723C202.006 280.878 209.809 275.887 211.662 275.068C215.065 273.624 225.861 272.893 233.575 273.677C242.287 274.569 251.266 277.794 239.632 278.169Z" fill="#E2C59C"/>
<path fill-rule="evenodd" clip-rule="evenodd" d="M212.535 275.371C212.535 275.371 200.278 278.9 198.158 280.593C196.679 281.787 190.587 288.613 190.587 288.613C190.587 288.613 195.183 287.722 197.766 285.12C200.367 282.535 212.535 275.371 212.535 275.371Z" fill="#E2C59C"/>
<path fill-rule="evenodd" clip-rule="evenodd" d="M315.508 262.752C315.508 262.752 346.81 263.644 345.295 282.25C344.44 292.819 337.439 296.722 327.979 296.276C310.377 295.456 290.424 293.585 290.424 293.585L280.554 265.087L315.508 262.752Z" fill="#D9E6F9"/>
<path fill-rule="evenodd" clip-rule="evenodd" d="M322.135 265.087L349.447 168.633C349.447 168.633 353.455 154.5 360.991 156.87C371.841 160.274 366.923 171.894 366.211 178.72C364.768 192.604 366.264 198.574 357.517 232.241C352.137 252.986 347.683 276.85 342.819 290.537C339.488 299.983 332.789 286.848 323.222 283.462C305.353 277.117 322.135 265.087 322.135 265.087Z" fill="#D9E6F9"/>
<path fill-rule="evenodd" clip-rule="evenodd" d="M375.119 137.497C379.822 158.492 401.023 171.609 422.455 166.815C443.887 162.003 457.444 141.097 452.741 120.085C448.038 99.0901 426.855 85.9729 405.423 90.7849C383.991 95.5791 370.416 116.503 375.119 137.497Z" fill="#133951"/>
<path fill-rule="evenodd" clip-rule="evenodd" d="M338.508 115.932C342.107 132.044 358.105 142.184 374.228 138.584L378.415 123.079C394.538 119.461 404.675 103.457 401.058 87.3451L398.6 76.3844C395.001 60.2552 379.003 50.1143 362.88 53.7322L355.593 55.3719C339.47 58.972 329.333 74.9764 332.95 91.1056L338.508 115.932Z" fill="#143951"/>
<path fill-rule="evenodd" clip-rule="evenodd" d="M340.557 70.3782C341.18 73.0515 342.035 75.7605 343.104 78.4517C350.248 96.5413 364.821 108.215 377.666 107.181C379.947 115.576 383.367 122.829 386.859 128.871C390.85 135.75 401.254 141.614 401.254 141.614C406.296 154.232 355.789 196.507 353.633 195.402C349.055 193.049 357.267 162.698 365.516 153.288C369.4 148.886 373.337 143.681 373.426 140.723C373.729 130.297 370.415 128.087 365.391 123.31C356.608 116.681 346.525 119.051 346.525 119.051C345.563 119.283 344.601 119.051 343.835 118.534C342.801 116.734 342.017 114.756 341.554 112.635L336.156 88.5569C334.66 81.8914 336.495 75.2615 340.557 70.3782Z" fill="#FF987F"/>
<path fill-rule="evenodd" clip-rule="evenodd" d="M392.916 338.907C392.916 338.907 379.982 350.634 376.33 351.668C371.466 353.058 357.837 347.177 357.837 347.177C357.837 347.177 361.596 286.403 360.207 262.325C358.799 238.229 353.152 231.26 353.793 223.828C354.844 211.941 345.188 205.864 348.039 196.81C350.872 187.738 358.051 155.159 358.532 159.686C362.737 198.2 377.506 168.49 380.445 163.839C382.066 161.29 392.916 338.907 392.916 338.907Z" fill="#75D4C4"/>
<path fill-rule="evenodd" clip-rule="evenodd" d="M365.891 149.349C365.891 149.349 348.77 161.896 349.002 167.706C349.233 173.498 340.147 190.643 343.835 216.414C348.04 245.821 349.589 265.586 348.734 284.353C347.879 303.12 339.221 319.374 338.936 342.49C338.704 360.579 342.837 362.201 342.837 362.201C342.837 362.201 350.837 365.16 357.535 358.975C364.252 352.791 363.058 290.84 362.042 275.246C361.009 259.651 356.163 222.937 355.041 212.208C353.634 198.895 355.754 185.903 356.431 182.089C358.818 168.9 361.651 160.827 363.628 155.979C363.967 155.141 368.403 151.577 368.688 150.917C369.899 148.102 367.28 147.763 365.891 149.349Z" fill="white"/>
<path fill-rule="evenodd" clip-rule="evenodd" d="M386.449 190.394C391.366 212.333 413.493 226.039 435.887 221.013C458.263 216.005 472.427 194.154 467.527 172.233C462.61 150.294 440.483 136.588 418.089 141.614C395.713 146.622 381.55 168.472 386.449 190.394Z" fill="#133951"/>
<path fill-rule="evenodd" clip-rule="evenodd" d="M219.945 463.949L193.276 514.725L156.38 512.924L138.03 507.827L178.774 501.162L201.025 457.764L219.945 463.949Z" fill="#FF987F"/>
<path fill-rule="evenodd" clip-rule="evenodd" d="M191.085 523.725L183.745 522.049L181.429 515.883L148.346 515.419L128.607 510.928C128.607 510.928 130.994 508.344 132.455 507.738C136.855 505.974 152.479 505.065 152.479 505.065C152.479 505.065 150.84 509.378 152.871 510.625C154.902 511.855 177.635 512.586 183.193 512.194C192.76 511.534 195.539 509.485 195.913 510.126C196.911 511.784 191.085 523.725 191.085 523.725Z" fill="#161711"/>
<path fill-rule="evenodd" clip-rule="evenodd" d="M414.829 312.067L394.929 320.729L386.271 346.696L258.267 325.612C258.267 325.612 245.226 321.602 236.924 342.204C225.094 371.54 195.022 462.719 195.022 462.719L214.066 482.627L273.784 379.596C273.784 379.596 396.123 437.019 436.475 424.615C451.956 419.856 463.768 392.517 461.577 364.874C459.831 343.238 455.501 323.331 455.501 323.331L414.829 312.067Z" fill="#194866"/>
<path fill-rule="evenodd" clip-rule="evenodd" d="M397.53 423.956L299.617 416.898L308.025 568.031L279.164 568.958L257.839 391.965C257.839 391.965 263.594 365.605 282.282 369.58C300.988 373.554 346.24 408.236 397.53 423.956Z" fill="#163F59"/>
<path fill-rule="evenodd" clip-rule="evenodd" d="M439.396 456.125C439.396 456.125 395.285 394.584 385.95 361.667C374.797 322.386 381.995 275.656 381.015 259.794C379.198 230.619 379.608 174.336 379.216 167.332C378.824 160.31 384.168 153.145 384.168 153.145C384.168 153.145 389.602 135.305 399.472 136.624C408.166 137.782 421.545 149.866 429.954 155.48C438.167 160.951 437.24 263.768 437.65 268.937C439.129 287.615 450.941 305.758 458.655 324.008C476.809 367.013 476.809 415.133 476.809 415.133C476.809 415.133 469.647 449.78 439.396 456.125Z" fill="white"/>
<path fill-rule="evenodd" clip-rule="evenodd" d="M409.806 292.516C409.806 292.516 408.737 300.019 368.492 295.581C328.247 291.143 270.133 275.567 270.133 275.567L363.86 277.901C363.86 277.901 399.686 280.361 409.806 292.516Z" fill="#FF987F"/>
<path fill-rule="evenodd" clip-rule="evenodd" d="M301.505 281.751C282.3 280.165 273.41 288.238 265.589 290.341C257.786 292.427 249.841 295.938 249.876 295.866C254.722 288.755 260.94 289.058 264.218 286.884C267.513 284.727 266.605 285.868 259.817 284.834C255.951 284.264 248.647 289.932 243.463 292.979C238.991 295.617 236.301 295.635 236.301 295.635C236.301 295.635 241.734 289.753 248.469 285.191C256.575 279.702 266.409 275.353 268.707 274.729C272.912 273.606 285.792 274.266 294.842 276.119C305.068 278.222 315.33 282.892 301.505 281.751Z" fill="#FF987F"/>
<path fill-rule="evenodd" clip-rule="evenodd" d="M269.704 275.157C269.704 275.157 254.757 277.349 252.049 278.899C250.161 279.987 242.126 286.545 242.126 286.545C242.126 286.545 247.666 286.189 251.051 283.729C254.436 281.288 269.704 275.157 269.704 275.157Z" fill="#E9D6B8"/>
<path fill-rule="evenodd" clip-rule="evenodd" d="M379.84 294.494L431.077 276.119C431.077 276.119 427.514 305.829 426.32 317.111C425.145 328.41 428.102 345.038 418.606 346.232C409.111 347.409 404.354 345.626 413.262 352.167C422.169 358.708 419.194 364.055 415.043 368.207C410.892 372.36 424.539 418.698 424.539 418.698C424.539 418.698 423.203 419.393 419.194 421.674C406.545 401.66 390.85 378.954 385.951 361.666C379.608 339.335 379.199 314.598 379.84 294.494Z" fill="#D9E6F9"/>
<path fill-rule="evenodd" clip-rule="evenodd" d="M393.273 275.139L397.744 179.985C397.744 179.985 402.875 160.06 410.34 155.48C419.212 150.044 431.398 160.114 431.398 160.114C431.398 160.114 437.633 174.977 433.446 245.126C430.649 292.052 426.32 316.362 404.087 312.922C383.332 309.732 359.886 305.08 359.886 305.08L351.567 273.071L393.273 275.139Z" fill="white"/>
<path fill-rule="evenodd" clip-rule="evenodd" d="M313.263 298.789L313.353 298.629L313.263 293.906H117.917V298.789L118.416 299.662C120.928 303.744 125.435 304.492 130.584 304.492H300.597C305.745 304.492 310.253 303.744 312.765 299.662L313.263 298.789Z" fill="#339D89"/>
<path opacity="0.177409" fill-rule="evenodd" clip-rule="evenodd" d="M266.194 299.573V299.716L266.675 300.411C267.441 301.48 268.421 302.264 269.526 302.817H299.224C304.195 302.817 308.524 302.229 310.947 298.914L311.41 298.201L311.499 298.076L311.446 295.759H266.194V299.573Z" fill="black"/>
<path opacity="0.177409" fill-rule="evenodd" clip-rule="evenodd" d="M239.811 298.344H142.218V294.993H239.811V298.344Z" fill="black"/>
<path fill-rule="evenodd" clip-rule="evenodd" d="M239.775 197.719C239.116 195.17 236.515 193.121 233.985 193.121H96.9306C94.4008 193.121 92.8865 195.17 93.5634 197.719L118.879 294.83H265.108L239.775 197.719Z" fill="#339D89"/>
<path fill-rule="evenodd" clip-rule="evenodd" d="M148.881 634.348H128.892L161.869 314.74H190.872L148.881 634.348Z" fill="#75D4C4"/>
<path fill-rule="evenodd" clip-rule="evenodd" d="M188.93 329.479L176.209 426.272L161.12 321.94L161.868 314.74H187.219L188.93 329.479Z" fill="#339D89"/>
<path fill-rule="evenodd" clip-rule="evenodd" d="M358.799 634.348H378.788L345.812 314.74H316.808L358.799 634.348Z" fill="#75D4C4"/>
<path fill-rule="evenodd" clip-rule="evenodd" d="M318.751 329.479L357.553 428.108L346.543 321.94L345.812 314.74H320.461L318.751 329.479Z" fill="#339D89"/>
<path fill-rule="evenodd" clip-rule="evenodd" d="M373.783 323.045H132.74V304.368H373.783V323.045Z" fill="#64C2B2"/>
<path fill-rule="evenodd" clip-rule="evenodd" d="M143.874 323.045H-129.842V304.368H143.874V323.045Z" fill="#88EBDB"/>
<path fill-rule="evenodd" clip-rule="evenodd" d="M393.077 130.582C393.077 130.582 380 147.799 377.631 163.839C375.261 179.879 381.782 266.62 381.782 266.62L386.449 190.394L382.975 178.702L388.908 177.508C388.908 177.508 394.252 147.799 398.421 143.058C402.572 138.299 403.16 136.517 403.16 136.517L393.077 130.582Z" fill="#D9E6F9"/>
<path fill-rule="evenodd" clip-rule="evenodd" d="M371.698 145.428C371.698 145.428 356.252 178.702 355.664 197.701C355.059 216.717 361.597 264.838 361.597 264.838C361.597 264.838 352.689 201.265 350.32 201.265C347.932 201.265 352.689 191.766 352.689 191.766L349.126 188.79C349.126 188.79 353.277 159.098 359.815 151.969C366.354 144.84 371.698 145.428 371.698 145.428Z" fill="#D9E6F9"/>
<path fill-rule="evenodd" clip-rule="evenodd" d="M444.741 358.102L423.362 381.271C423.362 381.271 441.178 422.262 451.867 420.48C462.556 418.698 462.556 408.004 464.338 399.093C466.119 390.182 444.741 358.102 444.741 358.102Z" fill="#D9E6F9"/>
<path fill-rule="evenodd" clip-rule="evenodd" d="M351.976 274.676C352.422 274.194 352.885 273.677 353.366 273.161L393.272 275.139L397.744 179.986C397.744 179.986 399.793 172.072 403.16 165.068C403.16 175.512 403.16 250.74 403.16 260.685C403.16 271.378 412.068 273.161 413.849 276.725C415.631 280.29 413.849 280.878 407.329 279.095C400.791 277.313 403.16 278.507 404.354 282.072C405.547 285.636 401.984 284.442 389.513 279.095C380.445 275.21 362.274 277.295 353.027 278.721L351.976 274.676Z" fill="#D9E6F9"/>
</g>
</svg>
