<svg width="1632" height="1038" xmlns="http://www.w3.org/2000/svg" xmlns:xlink="http://www.w3.org/1999/xlink"><defs><path d="M70.979 116.29l-.862-29.69s36.123 2.873 43.851-1.136c0 0 9.443-48.597-1.82-75.51l-.228-1.048L35.691 0 30.95 43.16c-2.568-7.564-23.29-15.614-28.83-4.782C-9.886 61.85 33.038 77.655 33.038 77.655l-4.358 38.992" id="a"/><path id="b" d="M.021.51h85.886v29.473H.02z"/><path d="M289.578 83.598l6.091 19.62s47.566-19.504 72.034-12.103l-82.45 47.728-21.466-53.883 25.791-1.362zM67.223 24.72l-26.67 24.438s3.961 16.261 5.631 31.598c2.418 22.202.932 42.244.932 42.244L.876 42.35 57.959 0l9.264 24.72z" id="d"/><path d="M240.62 89.232l25.497-2.295 5.02 16.304-21.105 8.795-9.413-22.804zM33.034 0l2.932 30.971-19.949 18.211L.18 24.843 33.035 0z" id="f"/><path d="M132.541 110.131L98.676.001h132.657c.086 26.94-3.087 71.31-19.882 121.837l53.324 251.16a8.766 8.766 0 01-2.734 8.341l8.104 28.771-33.12 9.643-7.888-26.811-.207.068c-4.696 1.551-9.752-1.055-11.198-5.761l-52.685-171.35a383.102 383.102 0 01-19.452 26.18c-44.553 54.962-72.32 84.604-86.602 98.863-5.098 5.1-13.029 5.349-18.407 1.182l-20.365 16.77L0 331.078l20.126-16.573c-3.226-5.172-2.695-11.898 1.428-16.488 20.52-22.897 78.27-92.822 110.987-187.885z" id="h"/><path id="j" d="M126.785 386.28l-13.95 4.952-55.97-194.064-34.53-119.72L0 0h28.31l4.976 19.53 38.352 150.426z"/><path d="M285.217 65.731c-11.037 21.67-49.779 92.806-77.398 81.46-20.68-8.495-45.435-78.929-45.435-78.929l40.24-23.949 18.083 48.403 36.92-40.11c-1.253-7.949-2.257-18.338.242-22.001 4.255-6.234 25.783-25.442 25.783-25.442l3.92 32.544.685-2.744a1.237 1.237 0 01.137-.548l1.584-6.35c-.665-.336-.937-.815-.65-1.477.234-.538.743-1.127 1.455-1.746l5.41-21.682s1.776.79 4.38 1.973c4.187-.864 19.35 9.445 19.58 9.601l.004.002c3.088 1.995-4.256 34.955-10.221 41.078-4.244 4.356-17.449 8.112-24.72 9.917zM38.686 212.706l2.465 4.68s2.23 3.823 4.567 10.497c2.335 6.672 1.365 10.755 6.417 21.236 5.735 11.898-4.523 6.992-8.201 1.799-2.871-4.054-2.545-9.533-6.267-11.988-1.247 1.99-4.097 4.835-5.687 22.002-.285 3.079 1.11 13.066 1.11 13.066.03 2.992.415 9.232-2.992 10.185-.844.236-1.943-.697-1.943-.697s.33 3.905-3.151 4.682c-1.37.305-4.088-8.126-4.088-8.126s-.414 4.282-3.014 4.758c-.735.134-9.413-24.294-9.413-24.294l.522 5.518 1.152 5.65s-.093 3.042-2.536 3.58c-.97.214-2.832-4.86-4.577-10.828C.336 255.14.39 248.16 1.19 241.22c.964-8.387.535-11.204 4.268-21.488.446-1.23 1.046-2.643 1.715-4.095-2.049-17.68-7.82-69.434-7.113-85.322.857-19.272 21.275-62.052 21.275-62.052l41.453 23.174-22.848 41.63-1.254 79.64zm99.172-191.7c-24.01-1.411-34.14-16.333-36.45-20.37 15.234-1.051 16.826-.897 37.118 1.204 8.23.853 14.002 2.604 19.592 4.135 1.21 4.106 2.93 16.383-20.26 15.031z" id="l"/><path d="M189.245 43.714l.143-.028 16.354 37.597-23.341 13.605-4.873 82.087H44.538l-2.23-80.953L.258 64.578s19.83-39.765 53.76-55.592c10.97-5.12 21.03-7.536 30.39-8.46.767-.076.162-.055.255.307.053.206.238.512.453.86.215.347.215.234 1.268 1.788 1.054 1.554 2.615 3.103 4.97 5.505 1.953 1.993 4.651 3.944 7.298 5.423 3.014 1.684 5.972 2.809 7.87 3.607 1.713.72 3.157 1.099 4.553 1.43 3.942.937 7.012 1.227 13.274 1.553.76.04 5.16-.286 5.934-.44 1.104-.22 2.093-.418 3.341-.758 1.248-.34 4.35-1.788 6.404-4.338.87-1.081 1.698-4.638 1.443-7.259-.255-2.62-1.397-2.626-.353-2.34 18.37 5 35.73 15.31 45.88 33.592a108.289 108.289 0 012.247 4.258z" id="n"/><path id="p" d="M.887.234H45.17v72.363H.887z"/><path id="r" d="M.904.234h19.171v72.363H.905z"/><path d="M84.103 59.608H31.18l-20-40.428h92.923l-20 40.428zm21.179-40.428H10c-5.523 0-10-4.295-10-9.59C0 4.294 4.477 0 10 0h95.282c5.523 0 10 4.294 10 9.59 0 5.295-4.477 9.59-10 9.59z" id="t"/><path d="M40.668 257.852c7.76 4.123 13.466 11.835 14.614 21.057.127 1.018.197 2.029.214 3.029.075 4.536-5.641 6.523-8.406 2.928-3.155-4.102-7.334-6.468-11.704-6.081-8.385.743-14.295 11.348-13.203 23.692l.007.078c.334 3.679-3.42 6.337-6.729 4.698C7.079 303.103.995 294.813.11 284.812c-1.059-11.964 5.642-22.826 15.943-27.613V62.055C7.337 57.365 1.412 48.159 1.412 37.568c0-11.517 7.006-21.398 16.99-25.611C22.017 4.877 29.39 0 37.845 0H210.7c7.703 0 14.507 4.046 18.39 10.118 12.72-2.007 25.536 5.084 30.285 17.6 5.124 13.506-.97 28.516-13.672 34.772v196.916c9.185 5.387 14.825 15.84 13.538 27.096-1.141 9.977-7.435 18.107-15.92 22.041-3.352 1.554-7.035-1.2-6.607-4.868.003-.027.005-.053.009-.078 1.409-12.312-4.228-23.066-12.591-24.023-4.359-.498-8.598 1.761-11.857 5.78-2.856 3.523-8.519 1.39-8.328-3.142.042-1 .139-2.009.291-3.023 1.482-9.841 8.144-17.818 16.85-21.455V76.736a21.624 21.624 0 01-10.388 2.65H40.668v178.466z" id="v"/><path d="M149.268 106.502c5.532.394 9.898 5.007 9.898 10.64v4.794H16.92v-4.795c0-5.632 4.365-10.245 9.897-10.64v-1.899c0-6.492 4.743-11.93 10.935-13.019v-78.3C37.752 5.977 43.73 0 51.035 0h74.016c7.306 0 13.282 5.977 13.282 13.283v78.3c6.192 1.09 10.935 6.527 10.935 13.02v1.899zm22.58-56.255c0 7.127-5.777 12.905-12.904 12.905s-12.905-5.778-12.905-12.905 5.778-12.904 12.905-12.904 12.904 5.777 12.904 12.904zM0 50.247c0-7.127 5.778-12.904 12.905-12.904S25.81 43.12 25.81 50.247s-5.778 12.905-12.905 12.905S0 57.374 0 50.247z" id="x"/></defs><g fill="none" fill-rule="evenodd"><path fill="#B6D4FF" d="M95.187 812.61l-37.744 88.703H40.327l22.707-93.051zm192.813 0l-37.743 88.703h-17.116l22.707-93.051zm288 88.703h-17.116l-37.743-88.703 32.152-4.348zm-192.813 0H366.07l-37.744-88.703 32.153-4.348z"/><path d="M554.953 605.02V819.8l-223.213.477-36.707-212.46 259.92-2.797zm-17 17.184l-222.77 2.396 30.867 178.647 191.903-.41V622.204z" fill="#B6D4FF"/><path fill="#CCE3FF" d="M262.042 473l60 347.277H60.291L.292 473z"/><path fill="#DCEEFF" d="M332.428 473l60 347.277H133.853L73.853 473z"/><path d="M396.539 820.277H88.745c-15.714 0-28.453-12.739-28.453-28.454v-65.576c0-15.715 12.739-28.454 28.453-28.454h307.794c15.715 0 28.454 12.74 28.454 28.454v65.576c0 15.715-12.74 28.454-28.454 28.454" fill="#CCE3FF"/><path fill="#DCEEFF" d="M556.109 820.277H283.505V697.793h272.604z"/><path d="M283.505 605.02V819.8l-223.213.477-36.708-212.46 259.92-2.797zm-17 17.184L43.735 624.6l30.867 178.647 191.903-.41V622.204z" fill="#B6D4FF"/><path fill="#DCEEFF" d="M1096 899.576h26.534v-86.202H1096zm221.017 0h26.534v-86.202h-26.534z"/><path fill="#B6D4FF" d="M1190.112 899.576h26.533v-86.202h-26.533zm221.016 0h26.534v-86.202h-26.534z"/><path fill="#B6D4FF" d="M1189.959 828.669h247.549V96.411h-247.549z"/><path fill="#DCEEFF" d="M1096.499 828.669h247.551V96.411h-247.551zm168.467-782.051c0 21.04-11.115 39.5-27.787 49.793h-61.204c-16.673-10.293-27.788-28.753-27.788-49.793 0-9.791 2.409-19.01 6.655-27.104h103.47c4.245 8.095 6.654 17.313 6.654 27.104m15.522 49.78h25.235V0h-25.235z"/><path fill="#CCE3FF" d="M1255.252 96.398h25.235V0h-25.235zm50.471 0h25.235V0h-25.235z"/><path d="M1398.748 96.398h-67.79V0h67.79a5.128 5.128 0 015.128 5.128V91.27a5.128 5.128 0 01-5.128 5.128" fill="#B6D4FF"/><path fill="#CCE3FF" d="M1353.197 38.314h28.441v-9.545h-28.441zM1118.659 804.54h203.326V593.779h-203.326z"/><path fill="#B6D4FF" d="M1118.66 804.54h70.147V593.779h-70.147z"/><path fill="#CCE3FF" d="M1118.659 567.624h203.326v-210.76h-203.326z"/><path fill="#B6D4FF" d="M1118.66 567.624h70.147v-210.76h-70.147z"/><path fill="#CCE3FF" d="M1118.659 330.708h203.326v-210.76h-203.326z"/><path fill="#B6D4FF" d="M1118.66 330.708h70.147v-210.76h-70.147z"/><path fill="#DCEEFF" d="M1167.343 804.54h20.124v-76.874h-20.124z"/><path fill="#CCE3FF" d="M1147.219 804.54h20.124v-76.874h-20.124zm40.248 0h20.124v-76.874h-20.124z"/><path d="M1260.611 804.54h-53.02v-76.874h53.02a5.128 5.128 0 015.13 5.128v66.617a5.129 5.129 0 01-5.13 5.129" fill="#B6D4FF"/><path fill="#CCE3FF" d="M1216.208 746.476h40.915v-7.611h-40.915zm9.117 11.743h22.681v-7.611h-22.681z"/><path d="M1237.781 298.068c-1.56 13.11-8.2 24.67-17.899 32.64h-63.43c-9.7-7.97-16.34-19.53-17.91-32.64h99.24z" fill="#DCEEFF"/><path d="M1237.781 270.82c-2.952 24.777-24.042 44-49.618 44-25.577 0-46.666-19.223-49.619-44h99.237z" fill="#DCEEFF"/><path d="M1237.781 243.612c-1.56 13.11-8.2 24.67-17.899 32.64h-63.43c-9.7-7.97-16.34-19.53-17.91-32.64h99.24z" fill="#DCEEFF"/><path d="M1237.781 216.363c-2.952 24.778-24.042 44-49.618 44-25.577 0-46.666-19.222-49.619-44h99.237z" fill="#DCEEFF"/><path d="M1205.105 516.994c0 19.295-2.057 36.943-5.487 50.63h-35.944c-3.423-13.687-5.488-31.335-5.488-50.63" fill="#ECF6FF"/><path d="M1203.327 525.472c8.15 1.61 13.453 9.521 11.844 17.671-1.61 8.15-9.521 13.453-17.671 11.844" stroke="#ECF6FF" stroke-width="8"/><path d="M1277.105 516.994c0 19.295-2.057 36.943-5.487 50.63h-35.944c-3.423-13.687-5.488-31.335-5.488-50.63" fill="#ECF6FF"/><path d="M1267.535 525.472c8.15 1.61 13.453 9.521 11.844 17.671-1.61 8.15-9.521 13.453-17.671 11.844" stroke="#ECF6FF" stroke-width="8"/><path d="M770.98 641.552c0 6.903 5.597 12.5 12.5 12.5h112.469V629.05h-112.47c-6.902 0-12.5 5.597-12.5 12.5" fill="#CCE3FF"/><path d="M846.624 641.552a7.237 7.237 0 007.237 7.236h41.786a.3.3 0 00.301-.3v-13.873a.3.3 0 00-.3-.3H853.86a7.237 7.237 0 00-7.237 7.237" fill="#DCEEFF"/><path d="M755.283 654.052v25h122.759c6.903 0 12.5-5.597 12.5-12.5 0-6.904-5.597-12.5-12.5-12.5h-122.76z" fill="#CCE3FF"/><path d="M755.283 659.385v14.335h50.474a7.167 7.167 0 000-14.335h-50.474zm47.161-45.577L810.428 536h24.968l7.985 77.81c.836 8.153-5.562 15.241-13.758 15.241h-13.421c-8.196 0-14.595-7.088-13.758-15.242M712 857.201h152V679.053H712z" fill="#DCEEFF"/><path fill="#B6D4FF" d="M864 857.201h101.144V679.053H864z"/><path fill="#CCE3FF" d="M725.624 840.149H847.76v-65.36H725.624zm0-80.048H847.76v-65.36H725.624z"/><path fill="#DCEEFF" d="M712 899.312h14.891v-42.111H712z"/><path fill="#B6D4FF" d="M950.253 899.312h14.891v-42.111h-14.891z"/><path fill="#DCEEFF" d="M849.108 899.312H864v-42.111h-14.892z"/><path fill="#B6D4FF" d="M811.538 899.312h14.891v-42.111h-14.891zm-36.961-171.89c0 6.69 5.424 12.114 12.115 12.114s12.114-5.424 12.114-12.114c0-6.691-5.423-12.115-12.114-12.115-6.69 0-12.115 5.424-12.115 12.115m0 80.048c0 6.69 5.424 12.113 12.115 12.113s12.114-5.424 12.114-12.114-5.423-12.115-12.114-12.115c-6.69 0-12.115 5.424-12.115 12.115"/><use fill="#5E93D1" xlink:href="#a" transform="matrix(-1 0 0 1 1235 297.603)"/><path fill="#000" opacity=".4" d="M1164.882 384.203l24.358-5.216-24.24 16.355z"/><path fill="#2437A8" d="M1144.79 335.687l-8.417 20.552 10.087.128z"/><path d="M1154.387 341.527a5.092 5.092 0 004.11 5.917 5.093 5.093 0 101.814-10.022 5.099 5.099 0 00-5.924 4.105m-26.474 0a5.092 5.092 0 004.11 5.917 5.093 5.093 0 101.814-10.022 5.099 5.099 0 00-5.924 4.105" fill="#0D0B6D"/><path d="M1155.256 362.187s-3.526 5.71-10.51 5.226" fill="#FFF"/><path d="M1155.256 362.187s-3.526 5.71-10.51 5.226" stroke="#252535" stroke-width="4"/><path d="M1203.59 341.222c5.693-5.894 11.888-8.392 15.646-9.429l-.717-14.874-35.808-6.237c2.467 16.595 12.052 25.648 20.88 30.54z" fill="#EACB47"/><path d="M1120.739 313.36c3.226-3.065 24.252-4.015 49.527-2.07a343.972 343.972 0 0116.727 1.681c17.228 2.161 29.905 5.236 31.968 7.94 2.29-33.782-18.425-53.9-45.547-55.771-17.793-1.23-33.929 5.705-43.588 20.154-4.942 7.405-8.195 16.79-9.087 28.066" fill="#393954"/><g transform="matrix(-1 0 0 1 1187.014 284.046)"><mask id="c" fill="#fff"><use xlink:href="#b"/></mask><path d="M66.683 29.983h-.01c-.034-.235-.172-.461-.398-.669-3.226-3.065-24.252-4.015-49.527-2.07A343.858 343.858 0 00.02 28.924C7.435 21.891 20.996 10.77 36.993 5.778c6.842-2.134 13.779-3.69 20.195-4.53C72.76-.814 85.255 1.302 85.88 9.377c.806 10.506-16.51 19.304-19.197 20.606" fill="#161629" mask="url(#c)"/></g><g transform="matrix(-1 0 0 1 1381 898.315)"><mask id="e" fill="#fff"><use xlink:href="#d"/></mask><use fill="#0D0B6D" xlink:href="#d"/><g mask="url(#e)" fill="#19141E" fill-rule="nonzero"><path d="M-14.019 15.377h382v124h-382z"/></g></g><g transform="matrix(-1 0 0 1 1356.467 898.292)"><mask id="g" fill="#fff"><use xlink:href="#f"/></mask><use fill="#CF3E83" xlink:href="#f"/><g mask="url(#g)" fill="#CF3E83" fill-rule="nonzero"><path d="M-11.39 15.4h302v97h-302z"/></g></g><g transform="matrix(-1 0 0 1 1352.453 584.237)"><mask id="i" fill="#fff"><use xlink:href="#h"/></mask><use fill="#101016" xlink:href="#h"/><g mask="url(#i)" fill="#2437A8" fill-rule="nonzero"><path d="M.453 0h279v423h-279z"/></g></g><path d="M1123.316 977.18l.207.067c4.696 1.552 9.752-1.054 11.198-5.76l52.685-171.352 32.506-105.765 33.865-110.132h-86.91l-25.864 121.837-53.325 251.161a8.766 8.766 0 002.734 8.34l-8.104 28.772 33.12 9.642 7.888-26.81z" fill="#FFF" opacity=".099"/><g transform="matrix(-1 0 0 1 1232.337 584.237)"><mask id="k" fill="#fff"><use xlink:href="#j"/></mask><use fill="#EFEFEF" xlink:href="#j"/><g mask="url(#k)" fill="#F6B852" fill-rule="nonzero"><path d="M.29 0h126v391H.29z"/></g></g><g transform="matrix(-1 0 0 1 1315 407.643)"><mask id="m" fill="#fff"><use xlink:href="#l"/></mask><use fill="#E576C6" xlink:href="#l"/><g mask="url(#m)" fill="#ED4848" fill-rule="nonzero"><path d="M0 .11h321v288H0z"/></g></g><g transform="matrix(-1 0 0 1 1298 407.754)"><mask id="o" fill="#fff"><use xlink:href="#n"/></mask><use fill="#5E93D1" xlink:href="#n"/><g mask="url(#o)" fill="#0D0B6D" fill-rule="nonzero"><path d="M0 0h206v177H0z"/></g></g><path stroke="#000" stroke-width="5" opacity=".201" d="M1255.694 503.772l-10.667 7.218-25.64-29.772"/><g transform="matrix(-1 0 0 1 1045 387.637)"><mask id="q" fill="#fff"><use xlink:href="#p"/></mask><path d="M32.834 63.507l-1.858 9.09H.887L15.08.233h30.09l-5.512 28.098-5.916-2.735-1.843-.509-1.45.081-.63.428v1.759l6.432 9.224-4.92 2.138-7.57 3.96-2.187 1.51-.848.783-.692.618-.44.53-.266.475-.113.617.113.273.132.21.191.189 2.482.874 5.66-1.546h5.594l-7.467 1.546L21 51.692l-1.672 1.571-.944 1.155v1.057l1.65.74 10.414-1.192L27 56.894l-2.285 1.413-2.095 1.078L21 61.469v1.029l.574.604 1.454.771h6.686l3.12-.366z" fill="#5E93D1" mask="url(#q)"/></g><g transform="matrix(-1 0 0 1 1050 387.637)"><mask id="s" fill="#fff"><use xlink:href="#r"/></mask><path fill="#020101" mask="url(#s)" d="M5.883 72.597H.904L15.097.233h4.978z"/></g><path d="M1024.743 396.273c.416 2.113 1.649 3.653 2.754 3.438 1.104-.215 1.663-2.103 1.247-4.217-.416-2.114-1.65-3.653-2.754-3.438-1.105.215-1.663 2.103-1.247 4.217" fill="#020101"/><path d="M745.82 1035.56H325c1.944-49.952 32.611-71.294 79.38-72.475 30.872-83.698 98.515 1.695 103.384-64.511 5.721-77.857 7.366-169.62 7.366-169.62l39.88.661s3.33 49.128 10.24 149.215c4.9 70.894 54.82 5.145 120.39 48.11 33.1 21.688 31.623 74.157 31.623 74.157s28.557 1.43 28.557 34.463" fill="#B5B8BC"/><path d="M469.59 1035.56H366.37c4.49-22.151 23.66-38.31 46.24-40.525 4.33-.411 8.78-.326 13.28.326 2.59.384 5.11.93 7.55 1.65 6.69 1.966 12.75 5.149 17.93 9.253 9.35 7.376 15.87 17.731 18.22 29.296m229.41 0h-55.86c2.29-10.193 9.58-18.45 19.17-21.586a27.353 27.353 0 017.14-1.323c1.43-.077 2.85-.038 4.23.105 12.17 1.237 22.34 10.463 25.32 22.804" fill="#D7DADD"/><path d="M608.18 1035.56H448.56c-.66-6.31-.51-12.792.53-19.342.54-3.404 1.31-6.73 2.28-9.954 11.04-36.497 48.85-60.395 89.09-54.526 9.51 1.39 18.37 4.326 26.35 8.506 27.67 14.461 44.74 43.843 41.37 75.316M481.442 890.412c-1.31 8.25-9.344 13.919-17.946 12.664-8.603-1.256-14.515-8.96-13.206-17.21 1.309-8.25 9.343-13.919 17.946-12.664 8.602 1.256 14.515 8.96 13.206 17.21m114.391 2.864c-.54 3.405-3.856 5.745-7.406 5.227-3.551-.52-5.991-3.698-5.45-7.103.54-3.405 3.856-5.744 7.406-5.227 3.55.52 5.99 3.698 5.45 7.103m187.049 103.672c-1.247 7.856-8.9 13.256-17.092 12.061-8.193-1.196-13.824-8.534-12.577-16.39 1.247-7.857 8.899-13.257 17.092-12.061 8.193 1.195 13.824 8.534 12.577 16.39" fill="#D7DADD"/><g transform="translate(478.989 680.235)"><mask id="u" fill="#fff"><use xlink:href="#t"/></mask><use fill="#6CA1FF" xlink:href="#t"/><g mask="url(#u)" fill="#A47EF1" fill-rule="nonzero"><path d="M.011 0h115v59h-115z"/></g></g><path d="M562.923 739.842H510l-20-40.428h92.923z" fill="#000" opacity=".402"/><g transform="translate(412 549)"><mask id="w" fill="#fff"><use xlink:href="#v"/></mask><use fill="#6CA1FF" xlink:href="#v"/><g mask="url(#w)" fill="#A47EF1" fill-rule="nonzero"><path d="M-10-3h286v312H-10z"/></g></g><path d="M539.135 606.986c-6.6 0-12-5.4-12-12v-15.448c0-6.6 5.4-12 12-12h66.38c6.6 0 12 5.4 12 12v15.448c0 6.6-5.4 12-12 12h-66.38zm-2.435-19.724c0 7.558 6.127 13.685 13.685 13.685 7.557 0 13.684-6.127 13.684-13.685 0-7.558-6.127-13.684-13.684-13.684-7.558 0-13.685 6.126-13.685 13.684zm37.556 0c0 7.558 6.127 13.685 13.685 13.685 7.557 0 13.684-6.127 13.684-13.685 0-7.558-6.127-13.684-13.684-13.684-7.558 0-13.685 6.126-13.685 13.684z" fill="#19141E"/><path d="M633.088 806.319v-180.52c2.928-2.745 4.885-4.734 5.872-5.968 1.514-1.895 2.818-3.727 3.603-4.693.206-.254.446-.679.493-.768.047-.09.036-.096.122-.089.874.068 1.48.089 2.218.089 1.707 0 3.782-.191 6.1-.68.767-.163 1.843-.472 3.161-.914.618-.207 1.634-.634 3.046-1.28v194.823h-24.615zm8.003-247.2c12.719-2.008 25.535 5.083 30.284 17.599 5.444 14.348-1.773 30.393-16.122 35.837a27.677 27.677 0 01-12.15 1.72 21.616 21.616 0 001.411-7.703v-35.758a21.65 21.65 0 00-3.423-11.696zm-206.573 54.428c.2.044.403.086.612.125.775.144 1.675.333 2.698.48a28.07 28.07 0 003.37.203c15.348 0 27.788-12.441 27.788-27.787 0-15.346-12.44-27.787-27.787-27.787a27.7 27.7 0 00-10.797 2.176c3.615-7.08 10.988-11.957 19.443-11.957h27.371c11.997 0 21.813 9.816 21.813 21.814v35.758c0 11.997-9.816 21.813-21.813 21.813h-24.548V806.32h-24.615V611.066c.172.09.34.177.505.26l-.002-.007a27.593 27.593 0 005.962 2.228z" fill="#000" opacity=".401"/><path d="M633.088 783.627h24.615-24.615zm0-21h24.615-24.615zm0-21h24.615-24.615zm0-21h24.615-24.615zm0-21h24.615-24.615zm0-21h24.615-24.615zm0-21h24.615-24.615zm0-21h24.615-24.615zm-205.035 147h24.615-24.615zm0-21h24.615-24.615zm0-21h24.615-24.615zm0-21h24.615-24.615zm0-21h24.615-24.615zm0-21h24.615-24.615zm0-21h24.615-24.615zm0-21h24.615-24.615z" stroke="#19141E" stroke-width="5"/><path fill="#19141E" d="M518 680.168h34.77V625H518z"/><path d="M606.671 477.246h-30.465" stroke="#19141E" stroke-width="5" stroke-linecap="round"/><path d="M513.676 435.699c-5.792 0-10.532 4.739-10.532 10.532" stroke="#FFF" stroke-width="5" stroke-linecap="round"/><path d="M468.524 477.246h37.471" stroke="#19141E" stroke-width="5" stroke-linecap="round"/><g transform="translate(456 427)"><mask id="y" fill="#fff"><use xlink:href="#x"/></mask><use fill="#6CA1FF" xlink:href="#x"/><g mask="url(#y)" fill="#A47EF1" fill-rule="nonzero"><path d="M0 0h172v122H0z"/></g></g><path d="M482.817 533.501v-3.294c.58-5.974 5.948-11.823 13.218-11.823h96.015c7.27 0 12.414 5.4 13.218 11.392v3.725c5.532.395 9.898 5.008 9.898 10.64v4.795H472.92v-4.795c0-5.632 4.365-10.245 9.897-10.64zm145.031-56.255c0 7.127-5.777 12.905-12.904 12.905s-12.905-5.778-12.905-12.905 5.778-12.904 12.905-12.904 12.904 5.777 12.904 12.904zm-171.848 0c0-7.127 5.778-12.904 12.905-12.904s12.905 5.777 12.905 12.904-5.778 12.905-12.905 12.905S456 484.373 456 477.246z" fill="#000" opacity=".396"/><path d="M483.66 533.818h121.309" stroke="#19141E" stroke-width="5"/><path d="M514.457 498.292h79.876" stroke="#19141E" stroke-width="7"/><path d="M535.333 460.321c-5.63 4.634-6.437 12.955-1.803 18.585 4.634 5.63 12.955 6.437 18.585 1.803 5.63-4.634 6.437-12.955 1.803-18.585-4.634-5.63-12.955-6.437-18.585-1.803" fill="#FFF"/><path d="M542.389 465.974a6.066 6.066 0 107.71 9.366 6.066 6.066 0 00-7.71-9.366" fill="#19141E"/><path d="M570.064 460.321c-5.63 4.634-6.437 12.955-1.803 18.585 4.634 5.63 12.955 6.437 18.585 1.803 5.63-4.634 6.437-12.955 1.803-18.585-4.634-5.63-12.955-6.437-18.585-1.803" fill="#FFF"/><path d="M577.119 465.974a6.066 6.066 0 107.71 9.366 6.066 6.066 0 00-7.71-9.366" fill="#19141E"/><path fill="#DCEEFF" d="M344.905 201.756H213.911V7.5h130.994z"/><path stroke="#DCEEFF" stroke-width="9" d="M344.905 201.756H213.911V7.5h130.994z"/><path fill="#FFF" d="M466.5 201.756H221.001V7.5H466.5z"/><path stroke="#DCEEFF" stroke-width="9" d="M466.5 201.756H221.001V7.5H466.5z"/><path fill="#FFF" d="M443.903 180.623H243.598V28.633h200.305z"/><path stroke="#DCEEFF" stroke-width="9" d="M443.903 180.623H243.598V28.633h200.305z"/><path fill="#B6D4FF" d="M393.232 143.906h-99.98V65.349h99.98z"/><path fill="#DCEEFF" d="M584 221.776H160.823V204H584z"/><path fill="#CCE3FF" d="M160.823 221.776H91.205V204h69.618z"/><path fill="#B6D4FF" d="M480.86 221.776l-33.047 51.846v-51.846z"/><path fill="#CCE3FF" d="M499.147 221.776l-33.046 51.846h-18.288l33.046-51.846z"/><path fill="#B6D4FF" d="M238.483 221.776l-33.047 51.846v-51.846z"/><path fill="#CCE3FF" d="M256.77 221.776l-33.046 51.846h-18.288l33.047-51.846z"/><path fill="#DCEEFF" d="M573.234 201.23h-76.118V112.5h76.118z"/><path stroke="#DCEEFF" stroke-width="5" d="M573.234 201.23h-76.118V112.5h76.118z"/><path fill="#FFF" d="M578.5 201.23h-77.535V112.5H578.5z"/><path stroke="#DCEEFF" stroke-width="5" d="M578.5 201.23h-77.535V112.5H578.5z"/><path fill="#CCE3FF" d="M560.148 178.141H522.89v-42.714h37.258z"/><path d="M1623.042 519.149s-76.674 169.23-85.83 353.23c0 0 42.915-186.46 85.83-353.23" fill="#DCEEFF"/><path d="M1485.855 649.2s55.187 1.437 63.59 185.437c0 0-23.552-138.872-63.59-185.436" fill="#DCEEFF"/><path d="M1542.21 464s32.216 194.673.506 392.765c0 0 1.884-206.894-.506-392.766" fill="#DCEEFF"/><path d="M1585.667 908.859h-79.677c-.598 0-1.194-.011-1.788-.033-36.331-1.358-56.544-47.312-35.968-80.466l18.253-29.408h118.683l18.252 29.408c20.577 33.154.364 79.108-35.967 80.466-.594.022-1.19.033-1.788.033" fill="#ECF6FF"/><path d="M1460 866.59h171.657m-167.673-28.423h164.241" stroke="#B6D4FF" stroke-width="9"/><path fill="#DCEEFF" d="M171.234 201.23H95.116V112.5h76.118z"/><path stroke="#DCEEFF" stroke-width="5" d="M171.234 201.23H95.116V112.5h76.118z"/><path fill="#FFF" d="M176.5 201.23H98.965V112.5H176.5z"/><path stroke="#DCEEFF" stroke-width="5" d="M176.5 201.23H98.965V112.5H176.5z"/><path fill="#CCE3FF" d="M158.148 178.141H120.89v-42.714h37.258z"/></g></svg>