<svg width="539" height="485" viewBox="0 0 539 485" fill="none" xmlns="http://www.w3.org/2000/svg">
<path fill-rule="evenodd" clip-rule="evenodd" d="M7.6908 299.772C22.8734 271.671 25.5137 238.534 14.9233 207.999C8.06195 188.215 6.98633 157.655 12.6512 137.375C30.8453 72.2233 114.995 33.4052 196.135 62.4081C270.528 89.0013 288.742 198.712 345.864 186.785C480.215 158.735 528.605 252.994 521.518 329.726C516.941 379.291 474.708 440.595 384.496 434.156C357.937 432.261 331.851 438.689 309.375 451.483C270.988 473.336 209.973 478.457 146.592 461.31C51.2533 435.515 -13.33 369.105 2.3446 312.981C3.63568 308.361 5.43036 303.954 7.6908 299.772Z" fill="#BFF0EA"/>
<g style="mix-blend-mode:multiply" opacity="0.22">
<path fill-rule="evenodd" clip-rule="evenodd" d="M262.146 485C146.962 485 53.5859 393.54 53.5859 280.721C53.5859 167.902 146.962 76.4439 262.146 76.4439C377.332 76.4439 470.707 167.902 470.707 280.721C470.707 393.54 377.332 485 262.146 485Z" fill="#BFF0EA"/>
</g>
<path opacity="0.01" fill-rule="evenodd" clip-rule="evenodd" d="M14.9238 207.999C8.06238 188.215 6.98676 157.655 12.6517 137.375C30.8458 72.2234 115.339 23.6517 196.478 52.6546C225.29 62.9537 236.155 44.688 272.596 35.8506C330.246 21.8692 414.35 9.28074 449.35 1.97292C583.701 -26.0773 528.606 252.994 521.519 329.727C516.941 379.291 474.709 440.595 384.497 434.156C357.938 432.261 331.852 438.689 309.376 451.483C270.989 473.336 209.973 478.457 146.592 461.31C51.2537 435.515 -13.3295 369.105 2.34503 312.982C3.63611 308.361 5.43079 303.954 7.69122 299.772C22.8738 271.671 25.5142 238.534 14.9238 207.999Z" fill="#BFF0EA"/>
<mask id="mask0_267_565" style="mask-type:alpha" maskUnits="userSpaceOnUse" x="0" y="0" width="539" height="472">
<path fill-rule="evenodd" clip-rule="evenodd" d="M14.9238 207.999C8.06238 188.215 6.98676 157.655 12.6517 137.375C30.8458 72.2234 115.339 23.6517 196.478 52.6546C225.29 62.9537 236.155 44.688 272.596 35.8506C330.246 21.8692 414.35 9.28074 449.35 1.97292C583.701 -26.0773 528.606 252.994 521.519 329.727C516.941 379.291 474.709 440.595 384.497 434.156C357.938 432.261 331.852 438.689 309.376 451.483C270.989 473.336 209.973 478.457 146.592 461.31C51.2537 435.515 -13.3295 369.105 2.34503 312.982C3.63611 308.361 5.43079 303.954 7.69122 299.772C22.8738 271.671 25.5142 238.534 14.9238 207.999Z" fill="white"/>
</mask>
<g mask="url(#mask0_267_565)">
<g filter="url(#filter0_d_267_565)">
<path fill-rule="evenodd" clip-rule="evenodd" d="M522.189 229.66C522.189 231.87 520.399 233.66 518.189 233.66H259.316C257.107 233.66 255.316 231.87 255.316 229.66V57.6889C255.316 55.4797 257.107 53.6889 259.316 53.6889H518.189C520.399 53.6889 522.189 55.4797 522.189 57.6889V229.66Z" fill="#40C1A8"/>
</g>
<path opacity="0.0954939" fill-rule="evenodd" clip-rule="evenodd" d="M500.125 190.219H410.817V182.979H500.125V190.219Z" fill="black"/>
<path opacity="0.0954939" fill-rule="evenodd" clip-rule="evenodd" d="M500.125 203.665H466.503V196.425H500.125V203.665Z" fill="black"/>
<path opacity="0.0954939" fill-rule="evenodd" clip-rule="evenodd" d="M490.147 125.057C487.532 125.057 485.415 122.988 485.415 120.414C485.415 117.848 487.532 115.748 490.147 115.748C492.763 115.748 494.871 117.848 494.871 120.414C494.871 122.988 492.763 125.057 490.147 125.057Z" fill="black"/>
<path opacity="0.0954939" fill-rule="evenodd" clip-rule="evenodd" d="M481.005 127.219C481.063 126.237 481.836 125.483 482.774 125.375C482.874 125.327 482.974 125.297 483.065 125.297C487.79 124.977 492.491 124.977 497.166 125.297C497.333 125.31 497.457 125.334 497.59 125.375C498.47 125.559 499.209 126.268 499.259 127.219L500.123 143.087C500.173 144.218 499.317 145.158 498.196 145.218H498.105C497.009 145.218 496.112 144.39 496.062 143.302L495.962 141.464L495.854 141.486C495.713 141.464 495.589 141.464 495.472 141.464C495.472 141.588 495.547 141.684 495.547 141.808V157.689C495.547 159.092 494.418 160.224 493.014 160.224C491.611 160.224 490.473 159.092 490.473 157.689V141.808C490.473 141.624 490.548 141.464 490.548 141.302C490.29 141.29 490.008 141.29 489.684 141.302C489.742 141.464 489.783 141.624 489.783 141.808V157.689C489.783 159.092 488.654 160.224 487.251 160.224C485.855 160.224 484.734 159.092 484.734 157.689V141.808C484.734 141.684 484.767 141.588 484.792 141.464C484.668 141.464 484.543 141.464 484.427 141.486L484.344 141.464L484.203 143.302C484.153 144.39 483.239 145.218 482.185 145.218H482.11C480.955 145.158 480.092 144.218 480.167 143.087L481.005 127.219Z" fill="black"/>
<path opacity="0.0954939" fill-rule="evenodd" clip-rule="evenodd" d="M467.555 128.16H291.04V118.851H467.555V128.16Z" fill="black"/>
<path opacity="0.0954939" fill-rule="evenodd" clip-rule="evenodd" d="M467.555 142.64H291.04V133.331H467.555V142.64Z" fill="black"/>
<path opacity="0.0954939" fill-rule="evenodd" clip-rule="evenodd" d="M467.555 158.155H291.04V148.846H467.555V158.155Z" fill="black"/>
<path opacity="0.0954939" fill-rule="evenodd" clip-rule="evenodd" d="M467.555 128.16H303.648V118.851H467.555V128.16Z" fill="black"/>
<path opacity="0.0954939" fill-rule="evenodd" clip-rule="evenodd" d="M467.555 142.64H405.564V133.331H467.555V142.64Z" fill="black"/>
<path opacity="0.0954939" fill-rule="evenodd" clip-rule="evenodd" d="M467.555 158.155H384.551V148.846H467.555V158.155Z" fill="black"/>
<path opacity="0.0954939" fill-rule="evenodd" clip-rule="evenodd" d="M500.125 89.8901H403.462V77.4782H500.125V89.8901Z" fill="black"/>
<path fill-rule="evenodd" clip-rule="evenodd" d="M122.203 453.986L7.78769 877.761L36.8556 879.587L92.3903 744.762L105.826 704.107L171.841 544.602L184.557 456.868L122.203 453.986Z" fill="#0253A2"/>
<path fill-rule="evenodd" clip-rule="evenodd" d="M172.41 843.885L180.617 680.972L173.395 606.311L164.631 503.851L177.902 435.259L223.348 442.422L228.475 552.907L225.659 657.694L223.411 697.181L206.263 852.68L172.41 843.885Z" fill="#0253A2"/>
<path fill-rule="evenodd" clip-rule="evenodd" d="M53.2716 404.978L114.362 470.4C114.362 470.4 112.86 480.501 107.973 475.442C107.379 474.85 110.031 472.68 106.445 470.993C91.9489 464.206 58.2847 454.375 45.3922 443.418C28.4591 429.007 16.0212 411.649 16.0212 411.649L53.2716 404.978Z" fill="#FF987F"/>
<path fill-rule="evenodd" clip-rule="evenodd" d="M297.091 276.436C297.091 276.436 323.28 269.985 353.636 230.06C363.89 216.577 359.293 230.841 358.346 247.126C357.412 263.403 329.026 290.865 296.018 301.642C263.023 312.416 297.091 276.436 297.091 276.436Z" fill="#E9D6B8"/>
<path fill-rule="evenodd" clip-rule="evenodd" d="M351.591 240.267C351.591 240.267 345.416 223.22 347.866 218.746C350.303 214.28 360.316 198.567 360.316 198.567L363.22 194.792C363.22 194.792 368.94 195.921 362.096 206.401C355.252 216.898 361.25 213.723 361.25 213.723L370.885 206.752L383.31 199.166L388.412 195.059C388.412 195.059 391.152 192.504 392.288 192.478C395.597 192.426 394.435 195.122 394.435 195.122L375.873 212.889L397.238 201.46C397.238 201.46 400.205 200.482 401.241 201.836C402.201 203.123 401.342 203.652 401.342 203.652L380.09 222.626L391.745 218.043C391.745 218.043 394.675 217.164 395.735 218.433C396.91 219.828 397.251 220.171 397.251 220.171L354.697 244.391L351.591 240.267Z" fill="#FF987F"/>
<path fill-rule="evenodd" clip-rule="evenodd" d="M353.611 263.225L363.649 248.261L344.746 236.002L334.708 250.973L353.611 263.225Z" fill="white"/>
<path fill-rule="evenodd" clip-rule="evenodd" d="M87.188 468.308L101.419 453.748L85.1045 438.315L70.8736 452.876L87.188 468.308Z" fill="#E7F5FE"/>
<path fill-rule="evenodd" clip-rule="evenodd" d="M379.168 216.185L394.649 209.07C394.649 209.07 397.932 207.083 400.016 207.172C402.415 207.274 402.415 209.47 402.415 209.47L380.09 222.626L379.168 216.185Z" fill="#FF987F"/>
<path fill-rule="evenodd" clip-rule="evenodd" d="M163.507 251.637C163.507 251.637 161.386 265.39 214.698 317.573C244.498 346.732 262.416 365.614 280.031 359.861C310.211 349.999 365.581 268.493 365.581 268.493L337.473 239.048C337.473 239.048 292.659 291.269 272.392 290.9C267.644 290.808 237.036 266.803 207.905 231.35C195.58 216.359 166.677 247.729 163.507 251.637Z" fill="white"/>
<path fill-rule="evenodd" clip-rule="evenodd" d="M230.76 558.689L216.403 585.824L210.683 515.181L192.02 579.586L84.5242 565.335C84.5242 565.335 105.637 461.009 115.84 418.335L81.3295 311.2C81.3295 311.2 51.9712 235.676 99.8916 232.082C147.825 228.504 203.119 225.502 203.119 225.502C203.119 225.502 259.955 420.43 230.76 558.689Z" fill="white"/>
<path fill-rule="evenodd" clip-rule="evenodd" d="M178.384 332.353C179.51 353.074 159.868 308.584 159.868 308.584C159.868 308.584 160.561 265.543 159.038 245.928C159.038 245.928 175.719 283.305 178.384 332.353Z" fill="#01E9B5"/>
<path fill-rule="evenodd" clip-rule="evenodd" d="M157.434 243.994L154.744 259.942L125.84 235.835L125.613 231.885L157.434 243.994Z" fill="#D1DBEA"/>
<path fill-rule="evenodd" clip-rule="evenodd" d="M161.949 226.721L171.689 257.965L160.956 246.159L162.497 228.734L161.949 226.721Z" fill="#D1DBEA"/>
<path fill-rule="evenodd" clip-rule="evenodd" d="M85.5474 308.713L59.1185 399.491L96.6846 447.249C96.6846 447.249 81.8728 468.884 75.7234 466.351C33.1821 448.838 -0.482124 388.78 -0.482124 388.78L38.0057 265.456C38.0057 265.456 54.0802 239.093 92.8459 232.753C120.929 228.168 87.3909 301.18 85.5474 308.713Z" fill="white"/>
<path fill-rule="evenodd" clip-rule="evenodd" d="M124.62 230.483C128.143 237.2 157.721 245.157 161.951 245.914C166.181 246.674 161.235 223.102 160.958 218.184C160.756 214.419 157.233 216.499 159.897 210.916L121.144 213.021C122.457 217.852 122.385 226.169 124.62 230.483Z" fill="#FF987F"/>
<path fill-rule="evenodd" clip-rule="evenodd" d="M161.765 226.915L169.948 249.389L180.453 335.535L195.543 267.823L183.13 256.105L189.861 245.208L175.011 227.432L161.765 226.915Z" fill="white"/>
<path fill-rule="evenodd" clip-rule="evenodd" d="M122.659 231.121L104.249 232.118L119.553 258.01L137.785 268.656L137.659 288.918L185.047 355.305L154.099 267.773L122.659 231.121Z" fill="#D1DBEA"/>
<path fill-rule="evenodd" clip-rule="evenodd" d="M123.71 229.052L105.3 230.049L120.54 254.78L138.735 264.923L138.571 284.301L185.782 347.688L155.062 264.037L123.71 229.052Z" fill="white"/>
<path fill-rule="evenodd" clip-rule="evenodd" d="M162.36 244.759L157.474 244.241L157.966 256.042L161.501 259.153L166.426 257.235L162.36 244.759Z" fill="#00BF93"/>
<path fill-rule="evenodd" clip-rule="evenodd" d="M181.338 471.011L138.319 472.552L130.465 520.036L159.09 520.063C159.09 520.063 174.229 520.13 176.666 507.486C179.09 494.843 181.338 471.011 181.338 471.011Z" fill="#E7F5FE"/>
<path fill-rule="evenodd" clip-rule="evenodd" d="M238.599 509.855L228.131 511.084L225.354 472.898L240.266 471.342C240.253 483.999 239.735 496.875 238.599 509.855Z" fill="#E7F5FE"/>
<path fill-rule="evenodd" clip-rule="evenodd" d="M123.729 303.919L127.789 302.54C126.223 296.286 120.666 290.679 113.696 291.376L112.105 291.537C109.214 291.826 106.689 293.272 105.009 295.609C103.002 298.401 102.396 302.185 103.343 305.989L107.699 304.943C107.055 302.376 107.421 299.899 108.671 298.148C109.605 296.848 110.956 296.076 112.56 295.915L114.151 295.755C116.467 295.533 118.754 295.849 121.142 299.144C122.413 300.897 124.435 305.064 124.909 306.971" fill="#BBBBF0"/>
<ellipse rx="6.30409" ry="6.20591" transform="matrix(-1 0 0 1 107.171 311.234)" fill="#D5D2F6" stroke="#BBBBF0" stroke-width="3"/>
<path fill-rule="evenodd" clip-rule="evenodd" d="M183.699 276.189L186.641 275.442L175.794 234.297C173.9 227.133 166.728 221.862 159.784 222.552L160.087 225.518C165.617 224.967 171.325 229.246 172.852 235.044L183.699 276.189Z" fill="#7676E3"/>
<path fill-rule="evenodd" clip-rule="evenodd" d="M164.102 226.722L165.541 222.48C163.597 221.844 161.639 221.617 159.708 221.81L160.162 226.259C161.45 226.13 162.776 226.286 164.102 226.722Z" fill="#1B5E8F"/>
<path fill-rule="evenodd" clip-rule="evenodd" d="M131.235 281.596L134.177 280.85L123.318 239.702C122.573 236.839 122.99 233.995 124.467 231.898C125.78 230.059 127.813 228.915 130.199 228.677L129.896 225.712C126.613 226.04 123.798 227.632 121.979 230.196C119.984 233.005 119.404 236.742 120.388 240.448L131.235 281.596Z" fill="#7676E3"/>
<path fill-rule="evenodd" clip-rule="evenodd" d="M157.384 304.706C158.116 304.706 158.836 304.671 159.556 304.598L171.197 303.444C176.98 302.869 181.93 300.067 185.125 295.553C188.647 290.59 189.67 283.98 187.94 277.416L183.016 258.729L178.609 259.85L183.534 278.537C184.935 283.837 184.152 289.107 181.387 292.998C178.963 296.425 175.187 298.554 170.743 298.995L159.101 300.151C148.949 301.149 138.393 293.292 135.578 282.616L130.653 263.928L126.247 265.047L131.171 283.736C134.328 295.711 145.793 304.706 157.384 304.706Z" fill="#BBBBF0"/>
<path fill-rule="evenodd" clip-rule="evenodd" d="M127.043 230.483C127.99 229.897 129.076 229.538 130.275 229.419L129.808 224.971C127.914 225.16 126.159 225.744 124.619 226.704L127.043 230.483Z" fill="#1B5E8F"/>
<path fill-rule="evenodd" clip-rule="evenodd" d="M166.905 203.203C167.852 207.391 165.137 211.508 160.895 212.418L126.21 219.828C121.967 220.742 117.775 218.083 116.841 213.906L105.666 163.48C104.732 159.308 107.434 155.177 111.702 154.261L146.362 146.875C150.617 145.955 154.809 148.602 155.743 152.786L166.905 203.203Z" fill="#FF987F"/>
<path fill-rule="evenodd" clip-rule="evenodd" d="M158.092 163.168C158.092 163.168 161.665 157.301 161.855 154.11C161.956 152.506 159.191 147.093 154.847 145.708C150.503 144.334 148.205 149.105 148.205 149.105C148.205 149.105 155.1 151.153 155.693 152.344C156.299 153.543 158.092 163.168 158.092 163.168Z" fill="#163F59"/>
<path fill-rule="evenodd" clip-rule="evenodd" d="M107.156 186.915C107.156 186.915 97.6352 168.663 97.3322 162.786C97.0417 156.892 96.8145 152.821 103.721 150.685C114.088 147.493 114.706 149.663 119.138 145.405C123.583 141.17 131.134 131.597 134.139 130.164C139.164 127.761 147.826 127.731 150.313 137.439C152.157 144.601 157.182 145.373 157.107 145.676C156.892 146.638 155.149 147.878 152.157 150.247C143.571 157.037 138.002 159.218 130.199 158.894C122.396 158.588 107.749 157.419 107.332 163.123C106.903 168.825 111.184 185.079 110.83 186.473C110.451 187.877 108.658 187.603 107.156 186.915Z" fill="#173F59"/>
<path fill-rule="evenodd" clip-rule="evenodd" d="M121.437 199.724C121.74 201.117 120.831 202.495 119.417 202.797L111.929 204.391C110.515 204.702 109.113 203.809 108.798 202.425L105.818 188.981C105.527 187.585 106.411 186.202 107.825 185.897L115.326 184.309C116.752 184.008 118.141 184.888 118.444 186.274L121.437 199.724Z" fill="#FF987F"/>
<path fill-rule="evenodd" clip-rule="evenodd" d="M166.085 190.17C166.401 191.577 165.504 192.947 164.09 193.245L156.615 194.849C155.176 195.153 153.787 194.269 153.471 192.867L150.504 179.426C150.188 178.045 151.085 176.656 152.499 176.359L159.999 174.748C161.401 174.457 162.815 175.35 163.118 176.735L166.085 190.17Z" fill="#FF987F"/>
<path fill-rule="evenodd" clip-rule="evenodd" d="M111.462 190.635C111.462 190.635 115.856 210.477 117.32 217.101C118.646 223.089 124 235.703 158.42 228.332C178.799 223.996 174.797 209.445 173.724 204.609C172.915 200.933 166.223 190.821 163.61 189.169L165.428 197.367C165.428 197.367 159.418 190.293 149.733 192.361C134.101 195.692 132.548 205.435 125.616 206.751C120.288 207.761 114.429 200.126 111.462 190.635Z" fill="#194866"/>
<path fill-rule="evenodd" clip-rule="evenodd" d="M146.198 206.757L156.893 204.469C158.307 204.172 159.204 202.797 158.888 201.394L158.572 199.923L142.738 203.318L143.067 204.783C143.37 206.174 144.771 207.059 146.198 206.757Z" fill="#E9D6B8"/>
<path fill-rule="evenodd" clip-rule="evenodd" d="M157.371 354.419C158.015 354.419 158.647 354.388 159.278 354.325L162.182 354.036C167.233 353.535 171.551 351.086 174.354 347.138C177.422 342.806 178.319 337.045 176.816 331.33L167.435 300.116L163.066 301.382L172.422 332.524C173.584 336.902 172.927 341.323 170.617 344.583C168.596 347.442 165.427 349.22 161.728 349.587L158.811 349.876C150.25 350.728 141.373 344.092 139 335.087L138.949 334.936L127.56 301.573L123.242 302.995L134.606 336.285C137.383 346.646 147.321 354.419 157.371 354.419Z" fill="#BBBBF0"/>
</g>
<defs>
<filter id="filter0_d_267_565" x="255.316" y="53.6889" width="306.873" height="221.972" filterUnits="userSpaceOnUse" color-interpolation-filters="sRGB">
<feFlood flood-opacity="0" result="BackgroundImageFix"/>
<feColorMatrix in="SourceAlpha" type="matrix" values="0 0 0 0 0 0 0 0 0 0 0 0 0 0 0 0 0 0 127 0" result="hardAlpha"/>
<feOffset dx="20" dy="22"/>
<feGaussianBlur stdDeviation="10"/>
<feColorMatrix type="matrix" values="0 0 0 0 0.254902 0 0 0 0 0.407843 0 0 0 0 0.533333 0 0 0 0.1 0"/>
<feBlend mode="normal" in2="BackgroundImageFix" result="effect1_dropShadow_267_565"/>
<feBlend mode="normal" in="SourceGraphic" in2="effect1_dropShadow_267_565" result="shape"/>
</filter>
</defs>
</svg>
