<svg width="497" height="467" viewBox="0 0 497 467" fill="none" xmlns="http://www.w3.org/2000/svg">
<path fill-rule="evenodd" clip-rule="evenodd" d="M7.31946 287.918C21.7697 260.749 24.2827 228.712 14.2031 199.19C7.6727 180.062 6.64896 150.516 12.0406 130.91C29.3571 67.9195 109.448 30.3894 186.674 58.43C257.479 84.1407 274.813 190.211 329.18 178.68C457.05 151.561 503.106 242.692 496.361 316.879C492.004 364.799 451.809 424.068 365.949 417.843C340.671 416.011 315.843 422.226 294.451 434.595C257.916 455.723 199.844 460.674 139.52 444.096C48.7806 419.157 -12.6873 354.95 2.2312 300.689C3.45999 296.222 5.16806 291.961 7.31946 287.918Z" fill="#BFF0EA"/>
<g style="mix-blend-mode:multiply" opacity="0.22">
<path fill-rule="evenodd" clip-rule="evenodd" d="M448 269.499C448 378.575 359.13 467 249.5 467C139.872 467 51 378.575 51 269.499C51 160.424 139.872 72 249.5 72C359.13 72 448 160.424 448 269.499Z" fill="#BFF0EA"/>
</g>
<path fill-rule="evenodd" clip-rule="evenodd" d="M7.31946 287.918C21.7697 260.749 24.2827 228.712 14.2031 199.19C7.67271 180.062 6.64897 150.516 12.0406 130.91C29.3571 67.9195 109.448 30.3894 186.674 58.43C257.479 84.1407 274.813 190.211 329.18 178.68C457.05 151.561 503.106 242.692 496.361 316.879C492.004 364.799 451.809 424.068 365.949 417.843C340.671 416.011 315.843 422.226 294.451 434.595C257.916 455.723 199.844 460.674 139.52 444.096C48.7806 419.157 -12.6873 354.95 2.2312 300.689C3.45998 296.222 5.16806 291.961 7.31946 287.918" fill="#BFF0EA"/>
<mask id="mask0_350_151" style="mask-type:alpha" maskUnits="userSpaceOnUse" x="0" y="0" width="486" height="454">
<path fill-rule="evenodd" clip-rule="evenodd" d="M12.1376 138.075C6.55681 114.36 17.3922 120.809 21.9999 96.5002C36.7983 18.4022 97.5035 -21.266 163.5 13.4999C224.009 45.3773 265 -2.5 372 10C508.5 -31.5 486.978 191.204 481.214 283.183C477.49 342.596 386.111 416.889 312.735 409.171C291.133 406.899 269.916 414.605 251.634 429.941C220.412 456.136 170.784 462.275 119.232 441.72C41.6871 410.799 -10.8426 331.194 1.90652 263.918C2.95662 258.38 4.41629 253.097 6.25485 248.084C18.6039 214.399 20.7515 174.678 12.1376 138.075Z" fill="white"/>
</mask>
<g mask="url(#mask0_350_151)">
<path fill-rule="evenodd" clip-rule="evenodd" d="M220.176 47.2931C222.451 36.6909 231.821 29.1174 242.664 29.1174H434.283C448.83 29.1174 459.723 42.4526 456.821 56.707L374.78 459.573C372.599 470.287 363.176 477.984 352.243 477.984H156.239C141.594 477.984 130.679 464.479 133.751 450.159L220.176 47.2931Z" fill="#E4EDFF"/>
<path fill-rule="evenodd" clip-rule="evenodd" d="M220.176 47.2931C222.45 36.6909 231.821 29.1174 242.664 29.1174L421.733 29.1174C436.399 29.1174 447.319 42.66 444.21 56.9932L359.473 447.629C357.18 458.201 347.829 465.746 337.011 465.753L158.852 465.871C144.201 465.88 133.275 452.372 136.349 438.046L220.176 47.2931Z" fill="url(#paint0_linear_350_151)"/>
<path opacity="0.39388" fill-rule="evenodd" clip-rule="evenodd" d="M257.134 277.196C257.516 275.335 259.153 274 261.053 274H312.282C314.831 274 316.73 276.353 316.191 278.846L278.949 451.049C278.551 452.89 276.923 454.204 275.04 454.204H225.706C223.174 454.204 221.279 451.88 221.788 449.4L257.134 277.196Z" fill="#339D89"/>
<path opacity="0.39388" fill-rule="evenodd" clip-rule="evenodd" d="M311.373 326.108C311.789 324.29 313.407 323 315.273 323H366.507C369.079 323 370.982 325.391 370.405 327.897L362.094 363.999C361.676 365.815 360.059 367.102 358.196 367.102H307.018C304.449 367.102 302.546 364.715 303.118 362.21L311.373 326.108Z" fill="#339D89"/>
<path opacity="0.39388" fill-rule="evenodd" clip-rule="evenodd" d="M171.356 375.108C171.771 373.29 173.389 372 175.255 372H226.49C229.061 372 230.965 374.391 230.388 376.897L222.076 412.999C221.658 414.815 220.041 416.102 218.178 416.102H167C164.431 416.102 162.528 413.715 163.101 411.21L171.356 375.108Z" fill="#339D89"/>
<path opacity="0.39388" fill-rule="evenodd" clip-rule="evenodd" d="M291.356 413.108C291.771 411.29 293.389 410 295.255 410H346.49C349.061 410 350.965 412.391 350.388 414.897L342.076 450.999C341.658 452.815 340.041 454.102 338.178 454.102H287C284.431 454.102 282.528 451.715 283.101 449.21L291.356 413.108Z" fill="#339D89"/>
<path opacity="0.39388" fill-rule="evenodd" clip-rule="evenodd" d="M321.356 277.108C321.771 275.29 323.389 274 325.255 274H376.49C379.061 274 380.965 276.391 380.388 278.897L372.076 314.999C371.658 316.815 370.041 318.102 368.178 318.102H317C314.431 318.102 312.528 315.715 313.101 313.21L321.356 277.108Z" fill="#339D89"/>
<path opacity="0.39388" fill-rule="evenodd" clip-rule="evenodd" d="M181.338 326.108C181.754 324.29 183.372 323 185.237 323H236.472C239.044 323 240.947 325.391 240.37 327.897L232.058 363.999C231.64 365.815 230.024 367.102 228.16 367.102H176.982C174.413 367.102 172.51 364.715 173.083 362.21L181.338 326.108Z" fill="#339D89"/>
<path opacity="0.39388" fill-rule="evenodd" clip-rule="evenodd" d="M332.356 228.108C332.771 226.29 334.389 225 336.255 225H387.49C390.061 225 391.965 227.391 391.388 229.897L383.076 265.999C382.658 267.815 381.041 269.102 379.178 269.102H328C325.431 269.102 323.528 266.715 324.101 264.21L332.356 228.108Z" fill="#339D89"/>
<path opacity="0.39388" fill-rule="evenodd" clip-rule="evenodd" d="M355.356 117.108C355.771 115.29 357.389 114 359.255 114H410.49C413.061 114 414.965 116.391 414.388 118.897L406.076 154.999C405.658 156.815 404.041 158.102 402.178 158.102H351C348.431 158.102 346.528 155.715 347.101 153.21L355.356 117.108Z" fill="#339D89"/>
<path fill-rule="evenodd" clip-rule="evenodd" d="M232.362 56.4174C234.123 48.5741 241.086 43 249.125 43C260.137 43 268.305 53.2149 265.883 63.9573L264.611 69.6012C262.845 77.4354 255.886 83 247.855 83C236.852 83 228.686 72.7988 231.096 62.0626L232.362 56.4174Z" fill="#449284"/>
<path fill-rule="evenodd" clip-rule="evenodd" d="M378.231 59.8102C379.146 55.825 382.692 53 386.781 53C392.421 53 396.595 58.2459 395.328 63.7418L394.762 66.1993C393.845 70.1799 390.301 73 386.216 73C380.58 73 376.407 67.7612 377.667 62.2683L378.231 59.8102Z" fill="#449284"/>
<path fill-rule="evenodd" clip-rule="evenodd" d="M405.231 59.8102C406.146 55.825 409.692 53 413.781 53C419.421 53 423.595 58.2459 422.328 63.7418L421.762 66.1993C420.845 70.1799 417.301 73 413.216 73C407.58 73 403.407 67.7612 404.667 62.2683L405.231 59.8102Z" fill="#449284"/>
<path opacity="0.39388" fill-rule="evenodd" clip-rule="evenodd" d="M268.356 228.108C268.771 226.29 270.389 225 272.255 225H323.49C326.061 225 327.965 227.391 327.388 229.897L319.076 265.999C318.658 267.815 317.041 269.102 315.178 269.102H264C261.431 269.102 259.528 266.715 260.101 264.21L268.356 228.108Z" fill="#339D89"/>
<g filter="url(#filter0_d_350_151)">
<path fill-rule="evenodd" clip-rule="evenodd" d="M172.304 105.516C173.956 99.413 179.494 95.1746 185.817 95.1746H342.743C351.631 95.1746 358.27 103.349 356.445 112.048L337.58 201.996C336.22 208.48 330.503 213.123 323.878 213.123H161.468C152.248 213.123 145.545 204.364 147.955 195.464L172.304 105.516Z" fill="white"/>
</g>
<rect x="189" y="143" width="111" height="13" rx="6.5" fill="url(#paint1_linear_350_151)"/>
<rect x="184" y="172" width="111" height="13" rx="6.5" fill="url(#paint2_linear_350_151)"/>
<path fill-rule="evenodd" clip-rule="evenodd" d="M268.8 124.336C267.888 124.336 267.132 124.208 266.532 123.952C265.932 123.696 265.428 123.252 265.02 122.62C264.612 121.988 264.38 121.14 264.324 120.076C264.268 119.012 264.32 117.672 264.48 116.056C264.864 112.904 265.56 110.712 266.568 109.48C267.576 108.248 269.056 107.632 271.008 107.632C272.928 107.632 274.224 108.232 274.896 109.432C275.568 110.632 275.712 112.808 275.328 115.96C274.944 119.064 274.228 121.236 273.18 122.476C272.132 123.716 270.672 124.336 268.8 124.336ZM270.744 109.36C269.512 109.36 268.592 109.832 267.984 110.776C267.376 111.72 266.92 113.456 266.616 115.984C266.296 118.56 266.304 120.304 266.64 121.216C266.976 122.128 267.792 122.584 269.088 122.584C270.368 122.584 271.288 122.128 271.848 121.216C272.408 120.304 272.848 118.56 273.168 115.984C273.472 113.472 273.436 111.74 273.06 110.788C272.684 109.836 271.912 109.36 270.744 109.36ZM279.936 124H281.952L283.92 107.848H282.408L277.536 109.672L277.8 111.208L281.64 110.032L279.936 124ZM285.288 124L285.6 121.36H288.168L287.856 124H285.288ZM286.488 114.16L286.152 116.8H288.72L289.056 114.16H286.488ZM294.672 116.176H293.256L293.448 114.592C295.16 114.576 296.4 114.324 297.168 113.836C297.936 113.348 298.384 112.616 298.512 111.64C298.608 110.824 298.432 110.236 297.984 109.876C297.536 109.516 296.912 109.336 296.112 109.336C295.056 109.336 293.92 109.584 292.704 110.08L292.368 108.472C293.696 107.928 295.056 107.656 296.448 107.656C297.792 107.656 298.856 107.96 299.64 108.568C300.424 109.176 300.736 110.16 300.576 111.52C300.384 113.264 299.536 114.48 298.032 115.168C299.84 115.824 300.616 117.16 300.36 119.176C300.216 120.36 299.828 121.352 299.196 122.152C298.564 122.952 297.828 123.512 296.988 123.832C296.148 124.152 295.208 124.312 294.168 124.312C292.792 124.312 291.464 124.04 290.184 123.496L290.928 121.696C292.096 122.256 293.2 122.536 294.24 122.536C295.28 122.536 296.172 122.268 296.916 121.732C297.66 121.196 298.096 120.36 298.224 119.224C298.336 118.28 298.084 117.536 297.468 116.992C296.852 116.448 295.92 116.176 294.672 116.176ZM305.124 123.952C305.724 124.208 306.48 124.336 307.392 124.336C309.264 124.336 310.724 123.716 311.772 122.476C312.82 121.236 313.536 119.064 313.92 115.96C314.304 112.808 314.16 110.632 313.488 109.432C312.816 108.232 311.52 107.632 309.6 107.632C307.648 107.632 306.168 108.248 305.16 109.48C304.152 110.712 303.456 112.904 303.072 116.056C302.912 117.672 302.86 119.012 302.916 120.076C302.972 121.14 303.204 121.988 303.612 122.62C304.02 123.252 304.524 123.696 305.124 123.952ZM309.336 109.36C308.104 109.36 307.184 109.832 306.576 110.776C305.968 111.72 305.512 113.456 305.208 115.984C304.888 118.56 304.896 120.304 305.232 121.216C305.568 122.128 306.384 122.584 307.68 122.584C308.96 122.584 309.88 122.128 310.44 121.216C311 120.304 311.44 118.56 311.76 115.984C312.064 113.472 312.028 111.74 311.652 110.788C311.276 109.836 310.504 109.36 309.336 109.36ZM327.264 107.968L326.4 114.856H319.032L319.896 107.968H317.856L315.888 124H317.928L318.816 116.632H326.184L325.296 124H327.336L329.304 107.968H327.264Z" fill="#449284"/>
<path fill-rule="evenodd" clip-rule="evenodd" d="M309.25 145.553C309.044 149.5 313.525 160.563 313.525 160.563C313.525 160.563 321.291 152.813 323.108 148.762C324.924 144.711 323.171 139.438 318.171 138.732C313.171 138.026 309.456 141.606 309.25 145.553ZM315.347 150.674C317.196 151.239 319.218 149.984 319.864 147.872C320.51 145.759 319.535 143.588 317.686 143.023C315.838 142.458 313.815 143.713 313.17 145.825C312.524 147.938 313.499 150.109 315.347 150.674Z" fill="#4CC5AE"/>
<ellipse cx="309.044" cy="179.593" rx="9" ry="10.5" transform="rotate(30 309.044 179.593)" fill="#4CC5AE"/>
<path d="M310.634 173.01L309.719 179.593L312 182.214" stroke="white"/>
<path fill-rule="evenodd" clip-rule="evenodd" d="M96.7441 87.4458L98.5757 81.093L144.772 36.3525L147.304 37.2704C147.304 37.2704 150.984 44.941 150.984 52.0926C150.984 59.2441 151.053 59.0675 150.497 60.7736C149.94 62.4797 148.584 62.4797 148.584 68.1636C148.584 73.8474 149.568 74.4834 146.114 83.2483C142.661 92.0133 139.139 96.5672 139.139 96.5672C139.139 96.5672 137.683 98.4674 129.367 97.5173C125.977 98.1269 125.76 103.728 125.76 103.728L96.7441 87.4458Z" fill="#FF987F"/>
<mask id="mask1_350_151" style="mask-type:alpha" maskUnits="userSpaceOnUse" x="96" y="36" width="55" height="68">
<path fill-rule="evenodd" clip-rule="evenodd" d="M96.7441 87.4458L98.5757 81.093L144.772 36.3525L147.304 37.2704C147.304 37.2704 150.984 44.941 150.984 52.0926C150.984 59.2441 151.053 59.0675 150.497 60.7736C149.94 62.4797 148.584 62.4797 148.584 68.1636C148.584 73.8474 149.568 74.4834 146.114 83.2483C142.661 92.0133 139.139 96.5672 139.139 96.5672C139.139 96.5672 137.683 98.4674 129.367 97.5173C125.977 98.1269 125.76 103.728 125.76 103.728L96.7441 87.4458Z" fill="white"/>
</mask>
<g mask="url(#mask1_350_151)">
<path opacity="0.103609" fill-rule="evenodd" clip-rule="evenodd" d="M112.812 94.1472C112.812 94.1472 114.651 87.9632 114.651 84.5732C114.651 81.1832 146.771 35.1187 146.771 35.1187L156.167 36.9581C156.167 36.9581 162.625 51.5997 163.209 54.8975C163.792 58.1954 159.066 101.406 157.105 102.172C155.143 102.939 144.59 107.072 141.312 107.072C138.035 107.072 128.356 104.744 128.356 104.744L112.812 94.1472Z" fill="black"/>
<path opacity="0.103609" fill-rule="evenodd" clip-rule="evenodd" d="M139.559 64.7026C139.559 64.7026 138.049 75.317 136.581 79.2467C135.113 83.1765 131.811 90.4249 133.462 92.9414C135.113 95.4579 137.71 98.8383 137.71 98.8383C137.71 98.8383 154.448 87.0379 154.448 86.2653C154.448 85.4927 147.305 80.1036 147.305 80.1036C147.305 80.1036 141.974 81.821 142.851 77.1823C143.729 72.5435 143.729 65.8621 143.729 65.8621L139.559 64.7026Z" fill="black"/>
</g>
<path fill-rule="evenodd" clip-rule="evenodd" d="M97.8658 82.1197C97.8658 82.1197 117.41 87.7234 123.028 80.5288C128.646 73.3341 134.706 59.7145 140.697 66.2101C143.343 68.7512 144.171 64.0673 144.171 61.3633C144.171 58.6593 144.617 55.7392 145.96 53.8868C147.304 52.0343 147.749 44.4303 145.96 42.2872C144.171 40.1441 145.947 37.9406 147.304 36.6855C148.661 35.4304 158.374 24.7465 145.96 22.4028C133.547 20.0592 109.174 18.2123 98.6683 38.1282C95.736 44.4001 97.8658 58.1835 97.8658 58.1835C97.8658 58.1835 98.6683 67.2322 98.6683 71.4554C98.6683 75.6786 97.8658 82.1197 97.8658 82.1197Z" fill="#173F59"/>
<path fill-rule="evenodd" clip-rule="evenodd" d="M84.3125 97.6746L140.697 121.191C140.697 121.191 136.583 107.041 129.397 102.358C122.212 97.6746 99.187 86.2654 97.9892 86.2654C96.7913 86.2654 96.1315 88.7144 91.3617 92.6935C89.5368 94.2158 84.3125 97.6746 84.3125 97.6746Z" fill="#EDF1FF"/>
<mask id="mask2_350_151" style="mask-type:alpha" maskUnits="userSpaceOnUse" x="84" y="86" width="57" height="36">
<path fill-rule="evenodd" clip-rule="evenodd" d="M84.3125 97.6746L140.697 121.191C140.697 121.191 136.583 107.041 129.397 102.358C122.212 97.6746 99.187 86.2654 97.9892 86.2654C96.7913 86.2654 96.1315 88.7144 91.3617 92.6935C89.5368 94.2158 84.3125 97.6746 84.3125 97.6746Z" fill="white"/>
</mask>
<g mask="url(#mask2_350_151)">
<path fill-rule="evenodd" clip-rule="evenodd" d="M109.407 102.448C109.407 102.448 109.506 91.9446 112.813 93.0459C116.119 94.1472 143.729 105.907 143.729 105.907L147.304 122.729C147.304 122.729 145.515 125.772 143.729 125.772C141.942 125.772 125.647 121.844 125.647 121.844L109.407 102.448Z" fill="#BED4FF"/>
</g>
<path fill-rule="evenodd" clip-rule="evenodd" d="M183.118 136.536L199.073 124.423C199.073 124.423 203.053 121.8 209.969 120.177C216.885 118.553 227.902 114.515 227.902 114.515C227.902 114.515 236.703 111.432 230.224 117.927C223.795 122.086 214.388 126.781 214.388 126.781C214.388 126.781 214.016 128.534 218.174 126.781C222.333 125.029 225.128 129.857 219.758 132.28C214.388 134.704 212.801 133.454 209.969 137.991C207.137 142.528 207.368 143.788 202.546 145.34C197.724 146.892 183.118 136.536 183.118 136.536Z" fill="#FF987F"/>
<mask id="mask3_350_151" style="mask-type:alpha" maskUnits="userSpaceOnUse" x="183" y="113" width="50" height="33">
<path fill-rule="evenodd" clip-rule="evenodd" d="M183.118 136.536L199.073 124.423C199.073 124.423 203.053 121.8 209.969 120.177C216.885 118.553 227.902 114.515 227.902 114.515C227.902 114.515 236.703 111.432 230.224 117.927C223.795 122.086 214.388 126.781 214.388 126.781C214.388 126.781 214.016 128.534 218.174 126.781C222.333 125.029 225.128 129.857 219.758 132.28C214.388 134.704 212.801 133.454 209.969 137.991C207.137 142.528 207.368 143.788 202.546 145.34C197.724 146.892 183.118 136.536 183.118 136.536Z" fill="white"/>
</mask>
<g mask="url(#mask3_350_151)">
<path opacity="0.1" fill-rule="evenodd" clip-rule="evenodd" d="M232.263 115.646L206.694 129.697C206.694 129.697 203.207 131.861 206.694 131.861C210.181 131.861 234.636 120.245 234.636 120.245L232.263 115.646Z" fill="black"/>
</g>
<path fill-rule="evenodd" clip-rule="evenodd" d="M209.115 171.608C209.115 171.608 222.432 175.712 223.376 179.896C223.547 180.112 231.226 168.679 234.689 166.381C238.152 164.082 238.271 162.121 239.138 159.47C240.005 156.818 240.859 151.924 240.859 149.223C240.859 146.522 241.693 144.959 241.693 143.932C241.693 142.904 241.934 137.806 239.138 137.806C236.342 137.806 237.085 143.516 234.286 145.702C231.488 147.889 226.576 150.674 229.032 145.702C231.488 140.731 232.01 141.326 233.119 139.629C234.227 137.932 233.229 134.248 227.222 138.801C221.215 143.355 215.578 153.121 212.77 162.892C211.17 166.969 209.115 171.608 209.115 171.608Z" fill="#FF987F"/>
<mask id="mask4_350_151" style="mask-type:alpha" maskUnits="userSpaceOnUse" x="209" y="136" width="33" height="44">
<path fill-rule="evenodd" clip-rule="evenodd" d="M209.115 171.608C209.115 171.608 222.432 175.712 223.376 179.896C223.547 180.112 231.226 168.679 234.689 166.381C238.152 164.082 238.271 162.121 239.138 159.47C240.005 156.818 240.859 151.924 240.859 149.223C240.859 146.522 241.693 144.959 241.693 143.932C241.693 142.904 241.934 137.806 239.138 137.806C236.342 137.806 237.085 143.516 234.286 145.702C231.488 147.889 226.576 150.674 229.032 145.702C231.488 140.731 232.01 141.326 233.119 139.629C234.227 137.932 233.229 134.248 227.222 138.801C221.215 143.355 215.578 153.121 212.77 162.892C211.17 166.969 209.115 171.608 209.115 171.608Z" fill="white"/>
</mask>
<g mask="url(#mask4_350_151)">
<path opacity="0.1" fill-rule="evenodd" clip-rule="evenodd" d="M233.119 136.959C233.119 136.959 223.701 143.811 223.701 149.013C223.701 154.214 227.261 153.292 228.41 152.411C229.559 151.53 237.003 150.017 235.061 157.962C233.119 165.907 232.265 164.857 227.372 165.907C222.479 166.957 216.929 175.575 216.929 175.575L223.078 180.464L253.1 162.948V138.361L237.219 130.022L233.119 136.959Z" fill="black"/>
</g>
<path fill-rule="evenodd" clip-rule="evenodd" d="M145.227 126.723C145.227 126.723 126.434 106.432 115.66 103.728C104.887 101.024 85.3558 97.5173 85.3558 97.5173C85.3558 97.5173 70.2522 107.298 64.9381 122.729C59.624 138.161 62.8968 161.998 62.8968 161.998C62.8968 161.998 69.4386 197.536 71.8138 204.816C74.189 212.095 74.5114 217.299 75.8655 240.729C77.2196 264.16 78.3141 271.811 78.3141 271.811H168.989L167.194 240.729L145.227 126.723Z" fill="#339D89"/>
<path fill-rule="evenodd" clip-rule="evenodd" d="M122.238 133.456C119.731 139.472 115.763 155.718 122.238 169.794C128.712 183.87 134.114 192.628 137.709 210.542C141.304 228.456 157.066 239.857 161.391 240.494C165.716 241.131 169.948 242.099 177.172 235.416C184.396 228.733 194.142 224.226 197.053 219.423C199.964 214.621 223.246 182.087 223.246 180.023C223.246 177.959 214.734 166.956 209.587 171.19C204.44 175.424 176.079 205.539 171.123 201.973C166.167 198.407 169.197 198.407 161.391 180.023C166.184 177.726 190.087 155.983 190.087 155.983C190.087 155.983 202.666 141.452 186.43 135.452C182.98 134.373 159.215 155.983 159.215 155.983C159.215 155.983 155.943 126.462 135.112 123.291C127.223 123.291 124.744 127.44 122.238 133.456Z" fill="#EDF2FF"/>
<mask id="mask5_350_151" style="mask-type:alpha" maskUnits="userSpaceOnUse" x="118" y="123" width="106" height="118">
<path fill-rule="evenodd" clip-rule="evenodd" d="M122.238 133.456C119.731 139.472 115.763 155.718 122.238 169.794C128.712 183.87 134.114 192.628 137.709 210.542C141.304 228.456 157.066 239.857 161.391 240.494C165.716 241.131 169.948 242.099 177.172 235.416C184.396 228.733 194.142 224.226 197.053 219.423C199.964 214.621 223.246 182.087 223.246 180.023C223.246 177.959 214.734 166.956 209.587 171.19C204.44 175.424 176.079 205.539 171.123 201.973C166.167 198.407 169.197 198.407 161.391 180.023C166.184 177.726 190.087 155.983 190.087 155.983C190.087 155.983 202.666 141.452 186.43 135.452C182.98 134.373 159.215 155.983 159.215 155.983C159.215 155.983 155.943 126.462 135.112 123.291C127.223 123.291 124.744 127.44 122.238 133.456Z" fill="white"/>
</mask>
<g mask="url(#mask5_350_151)">
<path fill-rule="evenodd" clip-rule="evenodd" d="M121.394 135.187C121.394 135.187 132.135 138.589 132.135 153.121C132.135 167.654 137.71 186.789 137.71 186.789C137.71 186.789 140.059 194.049 143.729 203.74C147.399 213.431 159.59 224.67 159.59 238.597C159.59 252.523 208.119 249 208.119 249L236.003 161.195C236.003 161.195 195.669 135.187 193.232 135.187C190.795 135.187 175.45 142.366 159.59 161.195C159.969 160.933 157.502 130.023 157.502 130.023L143.729 121.197L126.654 119.729C126.654 119.729 119.371 126.798 119.371 128.411C119.371 130.023 121.394 135.187 121.394 135.187Z" fill="#BDD5FF"/>
</g>
<path fill-rule="evenodd" clip-rule="evenodd" d="M78.3145 271.811L79.7129 293.038H171.124L168.989 271.811H78.3145Z" fill="#EDF2FF"/>
<mask id="mask6_350_151" style="mask-type:alpha" maskUnits="userSpaceOnUse" x="78" y="271" width="94" height="23">
<path fill-rule="evenodd" clip-rule="evenodd" d="M78.3145 271.811L79.7129 293.038H171.124L168.989 271.811H78.3145Z" fill="white"/>
</mask>
<g mask="url(#mask6_350_151)">
<path fill-rule="evenodd" clip-rule="evenodd" d="M109.37 269.503C109.37 269.503 111.267 290.368 115.319 293.038C119.371 295.708 171.501 294.566 171.501 294.566V269.503H109.37Z" fill="#BED4FF"/>
</g>
<path fill-rule="evenodd" clip-rule="evenodd" d="M79.7121 293.038C79.7121 293.038 83.4752 348.487 83.4752 364.565C83.4752 380.642 79.7121 408.851 79.7121 408.851C79.7121 408.851 74.2436 430.726 76.9778 453.059C79.7121 475.391 83.4752 504.154 83.4752 512.592C83.4752 521.03 83.4752 528.371 83.4752 528.371C83.4752 528.371 91.2843 515.963 99.2828 523.907C107.281 531.851 112.004 527.375 110.546 521.596C109.089 515.816 106.642 509.495 106.642 509.495C106.642 509.495 102.24 496.213 103.229 472.258C104.218 448.303 106.642 423.048 106.642 421.356C106.642 419.664 108.768 408.206 112.33 401.865C115.892 395.524 121.192 368.727 121.192 362.699C121.192 356.671 124.028 325.897 124.028 325.897C124.028 325.897 126.843 335.885 127.705 348.761C128.568 361.637 130.597 385.487 130.597 385.487C130.597 385.487 132.881 408.821 127.705 423.019C122.53 437.216 124.028 455.857 124.028 455.857C124.028 455.857 124.028 484.39 124.028 489.033C124.028 493.676 121.965 526.767 121.192 528.371C120.419 529.975 123.85 523.356 129.481 527.459C135.112 531.561 142.039 532.647 146.647 532.647C151.256 532.647 155.541 531.284 155.541 528.371C155.541 525.457 154.097 521.359 157.312 520.656C157.697 520.034 151.192 510.859 150.348 503.076C149.503 495.293 150.378 484.829 151.27 479.243C152.162 473.657 157.312 443.22 157.312 443.22C157.312 443.22 160.577 427.031 163.24 418.409C165.902 409.787 168.117 394.666 168.117 387.386C168.117 380.106 171.588 340.931 171.588 340.931V293.038H79.7121Z" fill="#CEDEFF"/>
<mask id="mask7_350_151" style="mask-type:alpha" maskUnits="userSpaceOnUse" x="76" y="293" width="96" height="240">
<path fill-rule="evenodd" clip-rule="evenodd" d="M79.7121 293.038C79.7121 293.038 83.4752 348.487 83.4752 364.565C83.4752 380.642 79.7121 408.851 79.7121 408.851C79.7121 408.851 74.2436 430.726 76.9778 453.059C79.7121 475.391 83.4752 504.154 83.4752 512.592C83.4752 521.03 83.4752 528.371 83.4752 528.371C83.4752 528.371 91.2843 515.963 99.2828 523.907C107.281 531.851 112.004 527.375 110.546 521.596C109.089 515.816 106.642 509.495 106.642 509.495C106.642 509.495 102.24 496.213 103.229 472.258C104.218 448.303 106.642 423.048 106.642 421.356C106.642 419.664 108.768 408.206 112.33 401.865C115.892 395.524 121.192 368.727 121.192 362.699C121.192 356.671 124.028 325.897 124.028 325.897C124.028 325.897 126.843 335.885 127.705 348.761C128.568 361.637 130.597 385.487 130.597 385.487C130.597 385.487 132.881 408.821 127.705 423.019C122.53 437.216 124.028 455.857 124.028 455.857C124.028 455.857 124.028 484.39 124.028 489.033C124.028 493.676 121.965 526.767 121.192 528.371C120.419 529.975 123.85 523.356 129.481 527.459C135.112 531.561 142.039 532.647 146.647 532.647C151.256 532.647 155.541 531.284 155.541 528.371C155.541 525.457 154.097 521.359 157.312 520.656C157.697 520.034 151.192 510.859 150.348 503.076C149.503 495.293 150.378 484.829 151.27 479.243C152.162 473.657 157.312 443.22 157.312 443.22C157.312 443.22 160.577 427.031 163.24 418.409C165.902 409.787 168.117 394.666 168.117 387.386C168.117 380.106 171.588 340.931 171.588 340.931V293.038H79.7121Z" fill="white"/>
</mask>
<g mask="url(#mask7_350_151)">
<path fill-rule="evenodd" clip-rule="evenodd" d="M79.7119 293.038H171.123L186.583 390.839L151.447 509.74H144.197C144.197 509.74 147.443 435.54 147.443 431.537C147.443 427.534 156.026 374.485 156.026 364.452C156.026 354.418 159.165 315.66 146.156 313.716C133.147 311.771 113.556 308.151 113.556 308.151C113.556 308.151 123.827 321.901 123.827 324.234C123.827 326.568 124.813 384.325 124.813 384.325L118.493 536.407V543.276C118.493 543.276 98.0105 540.382 98.0105 525.061C98.0105 509.74 99.4232 486.699 99.4232 474.925C99.4232 463.152 98.0105 424.952 98.0105 419.637C98.0105 414.323 97.1205 400.028 99.4232 395.433C101.726 390.839 105.326 372.303 105.326 359.444C105.326 346.585 106.537 317.837 106.537 317.837C106.537 317.837 106.404 306.395 95.4332 303.694C84.4629 300.993 79.7119 300.961 79.7119 300.961V293.038Z" fill="#A7C2FF"/>
</g>
</g>
<defs>
<filter id="filter0_d_350_151" x="147.461" y="95.1746" width="249.287" height="159.948" filterUnits="userSpaceOnUse" color-interpolation-filters="sRGB">
<feFlood flood-opacity="0" result="BackgroundImageFix"/>
<feColorMatrix in="SourceAlpha" type="matrix" values="0 0 0 0 0 0 0 0 0 0 0 0 0 0 0 0 0 0 127 0" result="hardAlpha"/>
<feOffset dx="20" dy="22"/>
<feGaussianBlur stdDeviation="10"/>
<feColorMatrix type="matrix" values="0 0 0 0 0.254902 0 0 0 0 0.407843 0 0 0 0 0.533333 0 0 0 0.1 0"/>
<feBlend mode="normal" in2="BackgroundImageFix" result="effect1_dropShadow_350_151"/>
<feBlend mode="normal" in="SourceGraphic" in2="effect1_dropShadow_350_151" result="shape"/>
</filter>
<linearGradient id="paint0_linear_350_151" x1="327.327" y1="825.439" x2="753.508" y2="363.826" gradientUnits="userSpaceOnUse">
<stop stop-color="#BFF0EA"/>
<stop offset="1" stop-color="#40C1A8"/>
</linearGradient>
<linearGradient id="paint1_linear_350_151" x1="300" y1="143" x2="189" y2="143" gradientUnits="userSpaceOnUse">
<stop stop-color="#EEEEEE" stop-opacity="0.01"/>
<stop offset="1" stop-color="#4FC6B0"/>
</linearGradient>
<linearGradient id="paint2_linear_350_151" x1="295" y1="172" x2="184" y2="172" gradientUnits="userSpaceOnUse">
<stop stop-color="#EEEEEE" stop-opacity="0.01"/>
<stop offset="1" stop-color="#4FC6B0"/>
</linearGradient>
</defs>
</svg>
